/* XPM */
static char *tex1[] = {
/* columns rows colors chars-per-pixel */
"64 36 123 2 ",
"   c #00212A",
".  c #00222B",
"X  c #01222B",
"o  c #01222C",
"O  c #01232C",
"+  c #02232C",
"@  c #02242D",
"#  c #03242D",
"$  c #04242D",
"%  c #04252D",
"&  c #04252E",
"*  c #05252E",
"=  c #05262F",
"-  c #06262F",
";  c #06272F",
":  c #072730",
">  c #072830",
",  c #092831",
"<  c #092932",
"1  c #0B2B33",
"2  c #0D2C34",
"3  c #102F37",
"4  c #123039",
"5  c #133139",
"6  c #13323A",
"7  c #14323A",
"8  c #15333B",
"9  c #16343C",
"0  c #18363E",
"q  c #1C3840",
"w  c #1C3941",
"e  c #1E3A42",
"r  c #1F3B43",
"t  c #1F3C44",
"y  c #203C44",
"u  c #203D45",
"i  c #223E46",
"p  c #233E46",
"a  c #233F47",
"s  c #244048",
"d  c #254048",
"f  c #264149",
"g  c #27424A",
"h  c #28434B",
"j  c #29444B",
"k  c #2A454C",
"l  c #2B454C",
"z  c #2D474F",
"x  c #2F4950",
"c  c #2F4951",
"v  c #2F4A51",
"b  c #304950",
"n  c #304A51",
"m  c #314B52",
"M  c #334D54",
"N  c #354E55",
"B  c #385057",
"V  c #395259",
"C  c #3A5259",
"Z  c #3A5359",
"A  c #3B545B",
"S  c #3C545B",
"D  c #3E565C",
"F  c #3F565D",
"G  c #3F575D",
"H  c #40585F",
"J  c #41585F",
"K  c #425960",
"L  c #445B62",
"P  c #445C62",
"I  c #475D64",
"U  c #4A6067",
"Y  c #4C6167",
"T  c #4E636A",
"R  c #4E646A",
"E  c #50656B",
"W  c #50656C",
"Q  c #51666C",
"!  c #51676D",
"~  c #52676D",
"^  c #54696F",
"/  c #566A70",
"(  c #566B71",
")  c #586C72",
"_  c #586D73",
"`  c #596D73",
"'  c #5A6E73",
"]  c #5D7176",
"[  c #5E7277",
"{  c #617479",
"}  c #62757A",
"|  c #65777C",
" . c #65787D",
".. c #687B81",
"X. c #6A7C81",
"o. c #6B7C82",
"O. c #6C7E83",
"+. c #6E7F84",
"@. c #6E8085",
"#. c #6F8085",
"$. c #718287",
"%. c #75858A",
"&. c #76868B",
"*. c #79898D",
"=. c #7C8C91",
"-. c #7D8C91",
";. c #7E8E92",
":. c #7F8E92",
">. c #7F8F93",
",. c #819094",
"<. c #829094",
"1. c #839195",
"2. c #869599",
"3. c #889599",
"4. c #909CA0",
"5. c #919EA2",
"6. c #96A2A5",
"7. c #98A3A7",
"8. c #9DA8AB",
"9. c #9EA9AD",
"0. c #A0ABAE",
"q. c #A0ACAF",
"w. c #A6AFB2",
/* pixels */
"# # # # # # # # # # # # # # # # # # # # # # # # # # # # # # # # # # # # # # # # # # # # # # # # # # # # # # # # # # # # # # # # ",
"# # # # # # # # # # # # # # # # # # # # # # # # # # # # # # # # # # # # # # # # # # # # # # # # # # # # # # # # # # # # # # # # ",
"# # # # # # # # # # # # # # # # # # # # # # # # # # # # # # # # # # # # # # # # # # # # # # # # # # # # # # # # # # # # # # # # ",
"# # # # # # # # # # # # # # # # # # # # # # # # # # # # # # # # # # # # # # # # # # # # # # # # # # # # # # # # # # # # # # # # ",
"# # # # # # # # # # # # # # # # # # # # # # # # # # # # # # # # # # # # # # # # # # # # # # # # # # # # # # # # # # # # # # # # ",
"# # # # # # # # # # # # # # # # # # # # # # # # # # # # # # # # # # # # # # # # # # # # # # # # # # # # # # # # # # # # # # # # ",
"# # # # # # # # # # # # # # # # # # # # # # # # # # # # # # # # # # # # # # # # # # # # # # # # # # # # # # # # # # # # # # # # ",
"# # # # # # # # # # # # # # # # # # # # # # # # # # # # # # # # # # # # # # # # # # # # # # # # # # # # # # # # # # # # # # # # ",
"# # # # # # # # # # # # # # # # # # # # # # # # # # # # # # # # # # # # # # # # # # # # # # # # # # # # # # # # # # # # # # # # ",
"# # # # # # # # # # # # # # # # # # # # # # # 1 6 6 a a 3 t t h 6 6 6 a 6 d a a # # # # # # # # # # # # # # # # # # # # # # # # ",
"# # # # # # # # # # # # # # # # # # # # # # # 0 *.1.:.&.^ [ ( [ X.3.,.:.h $.X.| t # # # # # # # # # # # # # # # # # # # # # # # ",
"# # # # # # # # # # # # # # # # # # # # # # # : R ( U ' ( Q I ( Q ' ' | t A R Q 3 # # # # # # # # # # # # # # # # # # # # # # # ",
"# # # # # # # # # # # # # # # # # # # # # # # # # # # # # # # : # # # # # # # # # # # # # # # # # # # # # # # # # # # # # # # # ",
"# # # # # # # # # # # # # # # # # # # # # # # # # # # # # # # # # # # # # # # # # # # # # # # # # # # # # # # # # # # # # # # # ",
"# # # # # # # # # # # # # # # # # # # # # # # # # # # # # # # # # # # # # # # # # # # # # # # # # # # # # # # # # # # # # # # # ",
"# # # # # # # # # # # # # # # # # # # # # # # # # # # # # # # # # # # # # # # # # # # # # # # # # # # # # # # # # # # # # # # # ",
"# # # # # # # # # # # # # # # # # # # # # # # # # # # # # # 1 c c M # # # # # # # # # # # # # # # # # # # # # # # # # # # # # # ",
"# # # # # # # # # # # # # # # # # # # # # # # # # # # # # : X. .| &.# # # # # # # # # # # # # # # # # # # # # # # # # # # # # # ",
"# # # # # # # # # # # # # # # # # # # # # # # # # # # # # 6 :.q.2.U # # # # # # # # # # # # # # # # # # # # # # # # # # # # # # ",
"# # # # # # # # # # # # # # # # # # # # # # # # # # # # # # # c 6 1 # # # # # # # # # # # # # # # # # # # # # # # # # # # # # # ",
"# # # # # # # # # # # # # # # # # # # # # # # # # # # # # # # # # # # # # # # # # # # # # # # # # # # # # # # # # # # # # # # # ",
"# # # # # # # # # # # # # # # # # # # # # # 1 Q I B Q d A M R R ' A A A Q A Q H A : # # # # # # # # # # # # # # # # # # # # # # ",
"# # # # # # # # # # # # # # # # # # # # # # 1 X.1.4.q.A :.6.8.#.X.4.8.:.X.4.w.7.$.# # # # # # # # # # # # # # # # # # # # # # # ",
"# # # # # # # # # # # # # # # # # # # # # # # d h h I t d c H c t h M a I c A M M 1 # # # # # # # # # # # # # # # # # # # # # # ",
"# # # # # # # # # # # # # # # # # # # # # # # # # # # # # # # # # # # # # # # # # # # # # # # # # # # # # # # # # # # # # # # # ",
"# # # # # # # # # # # # # # # # # # # # # # # # # # # # # # # # # # # # # # # # # # # # # # # # # # # # # # # # # # # # # # # # ",
"# # # # # # # # # # # # # # # # # # # # # # # # # # # # # # # # # # # # # # # # # # # # # # # # # # # # # # # # # # # # # # # # ",
"# # # # # # # # # # # # # # # # # # # # # # # # # # # # # # # # # # # # # # # # # # # # # # # # # # # # # # # # # # # # # # # # ",
"# # # # # # # # # # # # # # # # # # # # # # # # # # # # # # # # # # # # # # # # # # # # # # # # # # # # # # # # # # # # # # # # ",
"# # # # # # # # # # # # # # # # # # # # # # # # # # # # # # # # # # # # # # # # # # # # # # # # # # # # # # # # # # # # # # # # ",
"# # # # # # # # # # # # # # # # # # # # # # # # # # # # # # # # # # # # # # # # # # # # # # # # # # # # # # # # # # # # # # # # ",
"# # # # # # # # # # # # # # # # # # # # # # # # # # # # # # # # # # # # # # # # # # # # # # # # # # # # # # # # # # # # # # # # ",
"# # # # # # # # # # # # # # # # # # # # # # # # # # # # # # # # # # # # # # # # # # # # # # # # # # # # # # # # # # # # # # # # ",
"# # # # # # # # # # # # # # # # # # # # # # # # # # # # # # # # # # # # # # # # # # # # # # # # # # # # # # # # # # # # # # # # ",
"# # # # # # # # # # # # # # # # # # # # # # # # # # # # # # # # # # # # # # # # # # # # # # # # # # # # # # # # # # # # # # # # ",
"# # # # # # # # # # # # # # # # # # # # # # # # # # # # # # # # # # # # # # # # # # # # # # # # # # # # # # # # # # # # # # # # "
};
