/* XPM */
static char *wall01[] = {
/* columns rows colors chars-per-pixel */
"64 64 156 2 ",
"   c #2A261B",
".  c #2E2B1D",
"X  c #302F1F",
"o  c #32341C",
"O  c #36391F",
"+  c #322E22",
"@  c #353324",
"#  c #383527",
"$  c #373921",
"%  c #3B3B25",
"&  c #373428",
"*  c #3A362A",
"=  c #3E3A2C",
"-  c #3F3930",
";  c #413F26",
":  c #413D2E",
">  c #433D32",
",  c #3E4124",
"<  c #424425",
"1  c #43422C",
"2  c #49472D",
"3  c #4A482C",
"4  c #474236",
"5  c #474135",
"6  c #464134",
"7  c #494631",
"8  c #484136",
"9  c #484137",
"0  c #484236",
"q  c #494336",
"w  c #484237",
"e  c #494237",
"r  c #494337",
"t  c #494436",
"y  c #4B4636",
"u  c #4D4737",
"i  c #494336",
"p  c #4F4937",
"a  c #4D4934",
"s  c #484238",
"d  c #494338",
"f  c #494239",
"g  c #494339",
"h  c #4A4338",
"j  c #4A4339",
"k  c #4A433A",
"l  c #4A4438",
"z  c #4A4439",
"x  c #4B4439",
"c  c #4B4539",
"v  c #4A443A",
"b  c #4B443A",
"n  c #4B453A",
"m  c #4A443B",
"M  c #4C453A",
"N  c #4C453B",
"B  c #4D453B",
"V  c #4C463A",
"C  c #4D463A",
"Z  c #4C463B",
"A  c #4D463B",
"S  c #4D473B",
"D  c #4E473B",
"F  c #4C453C",
"G  c #4D453D",
"H  c #4C463C",
"J  c #4D463C",
"K  c #4D473C",
"L  c #4D463D",
"P  c #4E463C",
"I  c #4E473C",
"U  c #4F473C",
"Y  c #4E463D",
"T  c #4E473D",
"R  c #4D463E",
"E  c #4E463E",
"W  c #4E473E",
"Q  c #4F473E",
"!  c #4E473F",
"~  c #4F473F",
"^  c #4D463B",
"/  c #4E483D",
"(  c #4F483D",
")  c #4F483E",
"_  c #4F483F",
"`  c #4F483E",
"'  c #50493C",
"]  c #50483D",
"[  c #50493E",
"{  c #51493E",
"}  c #50483F",
"|  c #50493F",
" . c #51493F",
".. c #514A3F",
"X. c #524A3F",
"o. c #50493F",
"O. c #4F4740",
"+. c #4F4840",
"@. c #504740",
"#. c #504840",
"$. c #504940",
"%. c #514940",
"&. c #504941",
"*. c #514941",
"=. c #514A41",
"-. c #524B40",
";. c #534B40",
":. c #524A41",
">. c #534A41",
",. c #524B41",
"<. c #534B41",
"1. c #514942",
"2. c #514A42",
"3. c #524A42",
"4. c #534B42",
"5. c #524A43",
"6. c #534A43",
"7. c #534B43",
"8. c #534C41",
"9. c #544C40",
"0. c #544C41",
"q. c #544C42",
"w. c #554D42",
"e. c #544C43",
"r. c #554D43",
"t. c #564E42",
"y. c #534B44",
"u. c #544C44",
"i. c #554C44",
"p. c #554D44",
"a. c #544C45",
"s. c #554D45",
"d. c #564D44",
"f. c #574F45",
"g. c #564D46",
"h. c #564E46",
"j. c #574E46",
"k. c #574F47",
"l. c #524A42",
"z. c #584F46",
"x. c #584F47",
"c. c #584F47",
"v. c #585047",
"b. c #595047",
"n. c #595046",
"m. c #595048",
"M. c #5A5048",
"N. c #5B5148",
"B. c #5A5149",
"V. c #5B5248",
"C. c #5D544B",
"Z. c #5F544B",
"A. c #5E544C",
"S. c #5F564C",
"D. c #5A5148",
"F. c #655A50",
/* pixels */
"V V V > V <.<.<.<.<.<.<.<.V 5 > <.<.<.<.<.<.V O.<.<.<.V 5 * V V V V > V V V 0 V = > V V V ) <.V > = @ : 0 5 5 V V 0 V V V V V V ",
"V V V 5 V <.<.<.<.<.<.<.<.V 5 > <.<.<.<.<.V V <.V V ) V > * V V V ) > V V V 5 = = * : 1 : 5 : > > V = > V V V V V V V V V V V V ",
"<.V V 5 +.<.<.<.<.<.<.<.V V 5 > <.<.V V V <.<.<.V V V <.> @ 1 V ) +.> V V 5 * = 1 : 1 0 5 3 1 * ..<.V > <.<.<.V V V V V <.<.x.<.",
") V V > V <.<.<.V V <.<.V V 5 * V > V <.<.<.<.V ) <.+.<.5 $ @ - > > * = = * * <.x.<.<.<.<.<...@ 0 V V * > ) <.<.<.V V <.N.N.<.V ",
"V V ) > 5 <.<.V 0 0 V ) <.) 0 + > ..<.<.<.<.<.<.<.<.) ) 5 * V V V <.<.<.V 5 : V V V V V V V V & 0 V V @ V <.<.<.<.<.V x.<.<.<.V ",
"V <.<.> V <.V V V V V <.<.<.> * <.V ) ) ) <.<.<.<.<...<.> * V V V ) <.<.5 5 % V V V <.<.V V V @ V V V @ V <.) V <.<.<.<.<.<.<.) ",
"<.<.<.- 5 V V V V <.) <.<.<.= * <.V ) V ) <.<.<.) V ) ) > @ > V <.<.) <.V V # 0 V V 0 V ) V V * > 0 V + @ 5 0 0 O.+.V <.<.<.<.<.",
"V V 5 * > V +.) V <.V <.<.V > * <.V V V V <.) V V ) <.<.: @ = V <.V V V V 5 = V V V > V V V V # # V <.@ . X @ = * = 5 V V V V V ",
"* = = @ > <.<.<.V <.> > > 0 > * <.<.) ) <.<.) V ) <.<.) > @ @ * * * : > > # # V V V V ) V ) ) @ o : N.N.<.<.V ..V V V V V 0 0 > ",
"....<.> * <.<.<.<.<.> > V V > @ 5 5 5 5 V 5 s V V 5 5 V : , > = > V ) V V * * ) V V ) V V <.V # o = F.N.<.N.N.N.<.<.<.<.<.<.<.<.",
"V V V > + V N.b.N.V 5 V ) V > * ......<.<.<.<.V = @ = V : = V V V V V V V * * V V V V ) V V = % o = N.<.V V ) <.<.<.<.) V V V V ",
"V V ) V @ = x.N...5 V V ) V > > <.V <.<.<.k.<.<.= @ = > @ @ * * = = = * # X + 5 V V V <.) V : O . > b.) V V V ) <.V V V V V V V ",
"V V ) 5 . > V 5 5 V <.V <.) > > p 3 V V V <.<.<.> # # = % = V V 5 V V V V > * V V V V <.) V = o + <.<.V V V V V V V V V V V V V ",
"V V V 5   = V V V V <.<.<.V : = p p V V ) <.<.<.> : = = < 1 ) V V V V V V V = <.V V V ) V ) 0 $ = <.<.) V V V V V V V V V V V V ",
"V V V 5   - V V V V <.<.<.V : : 1 0 <...<.<.<.<.: < < 1 ) V V V V V V V ..V = <.V V V V <.<.V # = <.<.) V V V V V V V V V V ) V ",
"V V V > . > V V V V V V <.V > % < p <.<.V <.<.<.= < < , 0 V ..V ) <.V V <.V * V V V V V <.<.<.> = <.<.V V V V V V V ) V V V V V ",
"V V <.<.@ = V V V V 0 0 V V > % < ..N.<.+.<.<.<.* @ % : V V ) <.<.<.) V ) O.= V V V V V V <.<.V > <.) V V V V V V V V V V V V V ",
"<.<.<.<.* * > > = > : 1 0 5 = % 1 <.<.V V <.<.<.& + $ : ) <.<.<.<.<.V V V <.= V V V ) V V ..<.O.* V V V V V V V V V V V V V V V ",
"<.<.<.V = ; % @ @ @ @ @ @ % + @ 5 <.V V V <.<.<.> = % 1 ) <.<.<.V 5 V V V +.* V ) V V <.<.) <.+.@ : 0 p ) V V ) ) <.<.<.<.<.<.<.",
"V V 5 : < 1 = @ V b.5 V 5 V * . = 1 : V <.<.<.V > % < % 0 ) <.<.V V V V V ..= V <.) ) <.<.) ) +.@ % < 1 5 0 V V V V V V V V V V ",
"V V V V V 0 V # V <.V <.....> . @ % = : = = : > > = % % 1 2 ) <.<.<.<.<.0 2 % V <.<.<.<.V V V V % % % * * +   * - > > > > > > s ",
"<.<.<.<.) V <.= > <.) <...<.> . % 5 V V V <.N.b.b.<...5 @ % = = = = * = % % = > V V V 5 5 > 5 > % % > 0 0 = @ <.<.<.<.<.<.<.<.<.",
"<.<.<.+.V V V = > <.<.<.<.<.V + 3 5 V <.<.<.<.<.<.<.) > : > 1 1 5 V V 5 > 0 V V ..<.<...<.> = % , % % % , % @ V V <.<.N.<.<.<.<.",
"<.<.+.) V V ) > V <.<.<.<.<.V @ : 0 ) <.<.<.<.<...V V > ) ..) ) ....<.V V x.<.<.<.<.<.V <.V > * : 1 0 3 < < @ V V <.N.<.<.) ..<.",
"<.) V V ) V +.> ) <.<.<.V <.V @ % V <.<.<.<.V V ) V V 5 V V ) <.V V V 5 5 <...V ) ) V V <.V = & = 1 < < < < @ V <.<.<.) V V V <.",
"V V s > V V V > V <.) V V <.V = 1 V V <.<.<.<.V V V V 5 V V V V V V V : 5 ) V V V V <.<.<.> = & @ % , % @ @ # > V ) V V V V V <.",
"<.V 5 V V V V > 5 V 0 V V ) V 1 : V V V <.<.V V V V <.5 5 V V V V V V = 5 ..<.V V V <.<.<.> > = * + @ = * o * V V ..) ..V V V <.",
"<.O.V V V V V = > V V V V V 5 % > <.<.<.<.<.V V V ..N.5 : 5 > > > > > = 5 <.V V V V <.<.<.> * # @ @ = * * X * V V ) ) ) V V V V ",
"<.<.V V V V V - 5 <...V 0 2 , * > <.<.<.V V V V ) V b.5 5 V V V V V V 5 5 <.) V V V ) ) <.V @ X + = > = * * = V V V V V V V V V ",
"@.V V V V V V = > <.V V 2 < % : > <.V V V V V V ) V 0 = > V V ) V V V V > V V <.<.<.<.) V <.> = 0 V b...V V * > V 0 0 0 V V ) V ",
"5 > > > > = > @ > ) V V 1 = = , > <.) <.<.<.<.<.<.V 1 * > V V ) V V V 0 5 <.V V <.<.<.<.<.<.> * > V <.V V V @ + > = % 5 0 5 > > ",
"@ o @ @ + X + . = > > > = = = % * V V V V V V V V V = @ > V V V ) V V 5 = = * * * * * = : = * @ > V ..) V 0 @ = > > > > > > > > ",
": : @ > V V 0 > 5 > > 5 5 5 > 5 = = > = > > = @ > V > * 5 V V V <.V V 5 * = 5 V V 0 V * 0 V > @ V <.k.<.) : # ..<.<.<.<.<.V V V ",
") V = V <.<.) ) <.<...) V V ....> % 5 0 ..<.) = 5 <.<.> 5 V V V ..) ..V @ = V <.) V V > V <.5 @ <.<.<.<.<.V * V <.<.<.<.<.) V V ",
"<.<.> 5 <.V ..<.) V V V V V V V = * 0 5 0 V V > V <.<.> > V V V <.) <.V * V ..<.) V ..> V V : @ <.k.<.<.<.<.> O.<.<.<.<.<.<.) ) ",
"<.V > = V <.<.<.V V V V V V V ) = : V > V V V > V <.<.> > <.) V <.) <.5 : <.<.) 5 V N.> V 0 = @ <.<.<.<.<.<.* V <.<.<.<.<.<.<.<.",
"V V > 5 <.<.<.<.V V V V V ) ) V = * 5 5 V V V > > V O.= = V V V 5 5 V : # s 5 > * > 0 * + + . + x.<.<.x.<.<.+ * > = 5 5 5 V ) V ",
"1 0 > V <.<.<.V V V V V V V V : @ + * = - = * * * = * +   @ > > : * : : * = * = = > > = > 5 V > <.k.<.N.<.<.* & @ + @ @ > > > 5 ",
": 0 > 5 <.<.V V V V V V V V V : * 5 <.<.V <.<.<.<.<.V V > * ..) V V <.<.) ) V V ) ) ..) ......> V <.<.N.<.V > V > = % = ..0 1 1 ",
"V V > > <.<.V V V V V V V V V V = V <.<...N.N.<.) ) ) <.<.= <.V 5 V V V V V V V ) ..<.) V V V : @ * > = > * = 0 > > % = V V 0 V ",
"V V > > <.<.) ..V V V V V V V V = V <.<...<.<.<.<...<.<.V = ..V V V V V V V ) <.<.<.<.<.V V V V @ * * = > > 5 V V 5 = = V V V V ",
"V V : @ <.<.) p ) V V ) V ) V V * 0 ..V V <.<.<.<.<.<.<.+.* V V V ) <.) V <.<.<.V V <.<.<.<.V V = V <.<.x.<.<.<.<.<.> = V V V V ",
"V V > . * = : % 1 0 5 5 > V V V @ > V V 0 <.<.<.<.<.x.<.V * V V ..V ..V V ) <.<.V V <.<.<.<.V +.* V V V V V <.V V <.= = V ) V V ",
"V V > @ % % @ $ @ % # @ @ # = @ . * > * 5 <.<.<.<.<.<.<.V = ......V ) V V V V <.<.<.<.<.V V V +.= V ..<.<.V V V V <.> % 0 V V V ",
"V 5 > % : 0 1 3 5 1 0 V V ....> @ + @ @ 5 <.<.<.<.<.k.<.V = V ..) V V V V V V V V +.V V V V <.<.= V V <.V V ) ) V ) : , > V V V ",
"= * @ @ % 0 p ) ) 3 p ..<...) ) = % % % * > > V <.<.k.<.V * V <.<.V V V <.V V ) V V V V V V V <.* 5 V V 0 V <.<.) ..1 , > V V V ",
"* * > V 0 0 ) ) <.0 0 ....) V ) : # # @ > V V V ) <.<.<.<.* ..x.<.) V V V V V O.V V V V ) O.<.<.* V V V V V <.<.<.<.1 % > V V > ",
"= > V N.x.0 V V <.) V ) V V V V = @ = @ * > 5 1 0 <.) V V = <.<.<...V V V V V V V V V V V <.<.<.* V V V V V ) <.) <.1 O : V 0 5 ",
"1 5 V <.<.0 V ..<.<.+.V V V V V = % # % @ @ * 1 0 ) 1 % # V @.O.<.V 0 V V V V V V V V > V V <.V * V <.<.) ..V V V ) 1 $ > V V V ",
": 5 V <.<.V V <.<.<.<.s = = > 5 5 % % % @ # @ * : > 1 = * * <.5 5 > > V V V V V V V 5 V V V <.V * V <.<.p p ) V ) ) 1 % > > > = ",
"0 > 0 0 5 5 ..<.<.<.<.<.V V V V V p , @ V ) V <.<...<...: @ > 5 0 V > = = = = = = = = > : : > = + - ) p 3 < 5 5 5 V , % > > > 0 ",
"% : = < , 5 <.<.V ) <.<.V V V V V V # @ 5 V V V V V ) V = > V V V V V > > > > > * = > > > > > > > * = % % % % , , 1 , < : : : 1 ",
", < % % % V <.<.V V ) ) V V V V V 0 = + : ) V V V V V V > : 0 V +.<.<.<.<.<.<.<.: 5 <.<.) V ) V V 5 + @ % < < < % % % $ = : = 1 ",
"V 0 % , 5 <.<.<.V V <.) V V V V V 5 = @ V V V V V V V V > > V V <.<.+.) <.<.<.<.@ > V V V V V V V 5 * <.b.<.<.<.....0 5 <.<.<.<.",
"V V 5 % 5 <.<.<.) V <.<.V V V V V 0 < # V ) V V V V V V > = V > 5 V <.V ) <.<.<.= > V V ) V V V V 5 = <.<.<.......V 0 <.<.<.<.V ",
"V ) V = > <.<.<.<.<.<.<.V V V V V V 1 # V ..) V V V V V > * > > V <.<.V ) <.<.<.5 > ) <...V V V ) 5 = ) ) <.<.<.0 1 V ) <.<.V V ",
") V V > = <.<.<.<.) <.<.) V V V V 0 1 @ V ) ) V V V V V > * > 5 <.<.<.V ) <.<.<.V > <.V V V V V ) 0 % <...<.<.5 5 V V ) ..V V V ",
"<.V V 5 = <.<.<.) V V V V V V ) V 1 > + 0 V V V V V V V 5 > > V <.<.<.V V <.<...5 > V ) V V V V ) V = <.<...0 V ..V V ) <.V V V ",
"<.) ) 5 = V <.<.+.V 5 > 0 V V V V : = . V ) V V V V V ) > * 0 <.<.<.<.) <.<.V ) > * V V V V V V V V : ..<.) 5 ..V V V ) <.V V V ",
") <.V : @ * V <.V V V V > V V 5 : 1 % + V <.V V V V <.<.> = V V +.<.<.<.V V V ) > * V V V V V V V ) 1 V ) 0 V V V V V V <.V V V ",
"<.<.V > @ * V V V V V V > = @ @ @ @ . + V <.V V ) <.<.) = = V V <.<.<.<.V V V V 5 = <.) V V V V V V = 0 V 5 V V ) <...V ) V V V ",
"<.<.) 5 @ > <.N.b.<.<.<.<...= + @ @ + . V <.V V ) <.) V @ = 0 V V V V s 5 > > > = - ..V V V V V V V = 5 0 V V V <.) V V +.<.) ) ",
"V V V > * ) <.<.<.V <.<.<.) = + * @ +   * - = = > > > =     + + + + . + @ @ @ @ . > ) V V ) V V V V : : > 5 V V <.<.<.V <.<.V V ",
"V V V > 5 <.<.<.<.) <.<.<.) % * V 5 5 > > > > * > 5 5 > = + > V V V * 0 V V V V * > ) V <.<.<.<.V V > = 5 > 0 V <.<.V V ) <.V V "
};
