/* XPM */
static char *wall02_west[] = {
/* columns rows colors chars-per-pixel */
"64 64 224 2 ",
"   c #161414",
".  c #181716",
"X  c #1A1817",
"o  c #1D1B19",
"O  c #191718",
"+  c #211E1C",
"@  c #201616",
"#  c #24211E",
"$  c #29211F",
"%  c #201F20",
"&  c #262422",
"*  c #292624",
"=  c #2B2826",
"-  c #2D2C2B",
";  c #342925",
":  c #322D2B",
">  c #3B2E2A",
",  c #372925",
"<  c #2F302E",
"1  c #32312E",
"2  c #3C312C",
"3  c #343432",
"4  c #393633",
"5  c #363937",
"6  c #3A3936",
"7  c #373B39",
"8  c #3C3D3A",
"9  c #393738",
"0  c #462E2C",
"q  c #43332D",
"w  c #4B342D",
"e  c #4B392F",
"r  c #51352E",
"t  c #54382F",
"y  c #433A35",
"u  c #4B3B34",
"i  c #413E3B",
"p  c #443732",
"a  c #543C32",
"s  c #573C33",
"d  c #572A29",
"f  c #702B2A",
"g  c #3C403E",
"h  c #42413E",
"j  c #4B423C",
"k  c #5C4336",
"l  c #54433B",
"z  c #5C453A",
"x  c #5F483D",
"c  c #634A3B",
"v  c #65493B",
"b  c #483F40",
"n  c #444442",
"m  c #4A4643",
"M  c #4C4947",
"N  c #4D4B4A",
"B  c #544A43",
"V  c #5B4B43",
"C  c #524D4B",
"Z  c #574946",
"A  c #54504E",
"S  c #5B524D",
"D  c #555352",
"F  c #5B5553",
"G  c #5D5856",
"H  c #5D5A5B",
"J  c #5A5759",
"K  c #4F5051",
"L  c #634D42",
"P  c #6B4E41",
"I  c #6D5143",
"U  c #63534B",
"Y  c #6B554A",
"T  c #725445",
"R  c #75594C",
"E  c #7B5B4C",
"W  c #755749",
"Q  c #625652",
"!  c #635956",
"~  c #6A5B55",
"^  c #635C5B",
"/  c #6C5E59",
"(  c #6A5555",
")  c #735D54",
"_  c #715D5A",
"`  c #7A5C55",
"'  c #6B615D",
"]  c #74625A",
"[  c #7A635A",
"{  c #7B6155",
"}  c #625F62",
"|  c #745F60",
" . c #656364",
".. c #6B6464",
"X. c #6C6A6B",
"o. c #6A6369",
"O. c #736661",
"+. c #726B6C",
"@. c #7A6B67",
"#. c #7B706E",
"$. c #736E77",
"%. c #767274",
"&. c #7B7474",
"*. c #7B777A",
"=. c #6E6B76",
"-. c #5E5A64",
";. c #862C2C",
":. c #923231",
">. c #883231",
",. c #815E4F",
"<. c #835F50",
"1. c #846353",
"2. c #8A6555",
"3. c #8C6A5A",
"4. c #85675A",
"5. c #956C5C",
"6. c #986F5E",
"7. c #99715F",
"8. c #83604F",
"9. c #846C65",
"0. c #89736B",
"q. c #957364",
"w. c #9B7462",
"e. c #9A7A6A",
"r. c #857978",
"t. c #967A75",
"y. c #916F6A",
"u. c #A27A67",
"i. c #A37D6B",
"p. c #A87F6D",
"a. c #B17B7D",
"s. c #D27C7C",
"d. c #8A807E",
"f. c #98837B",
"g. c #AA836E",
"h. c #A5826E",
"j. c #A58373",
"k. c #AB8673",
"l. c #AB8C7B",
"z. c #A98876",
"x. c #B38B74",
"c. c #B48C77",
"v. c #BD927C",
"b. c #B89179",
"n. c #C3957C",
"m. c #7B7889",
"M. c #7F7D90",
"N. c #837E82",
"B. c #827F91",
"V. c #858183",
"C. c #8C8688",
"Z. c #978B89",
"A. c #8B8A95",
"S. c #928F93",
"D. c #9A9495",
"F. c #9A959B",
"G. c #9B999D",
"H. c #979399",
"J. c #9F928F",
"K. c #A58882",
"L. c #AC9488",
"P. c #BA9787",
"I. c #A39A9B",
"U. c #B99B93",
"Y. c #AE8E8B",
"T. c #BBA49C",
"R. c #9B98A2",
"E. c #A29EA4",
"W. c #A69FA5",
"Q. c #A6A3A4",
"!. c #AAA4A5",
"~. c #A6A2AA",
"^. c #AAA5AA",
"/. c #AEAAAD",
"(. c #B6A9A7",
"). c #AEAAB1",
"_. c #A9A6B1",
"`. c #B3AEB2",
"'. c #BAAFB6",
"]. c #B5B1B6",
"[. c #B9B2B6",
"{. c #BCB5BB",
"}. c #BEB8BE",
"|. c #B6B4BA",
" X c #C98687",
".X c #D28A8A",
"XX c #C39984",
"oX c #C69B86",
"OX c #CE9899",
"+X c #CCA18C",
"@X c #C7A08E",
"#X c #D0A48F",
"$X c #CAA796",
"%X c #D4A995",
"&X c #D5AD9B",
"*X c #D1A691",
"=X c #C8ADA3",
"-X c #D3AFA1",
";X c #D5B0A2",
":X c #D4B5AB",
">X c #D8B7AB",
",X c #C5B8BA",
"<X c #D5BCB6",
"1X c #CCB3AD",
"2X c #D8C1BB",
"3X c #BEBBC2",
"4X c #C7BCC5",
"5X c #C3BBC2",
"6X c #C8BEC7",
"7X c #C6C3CA",
"8X c #CAC4CC",
"9X c #C9C3C9",
"0X c #D5C5C5",
"qX c #CDCAD2",
"wX c #C8C6D0",
"eX c #D2CDD6",
"rX c #D8CDD0",
"tX c #D5D3DB",
"yX c #D8D6DE",
"uX c #DCD5D9",
"iX c #DCDCE4",
"pX c #D9D7E0",
"aX c #E0E0E9",
"sX c #E0DFE8",
/* pixels */
"iXiX8X/.`.5X5X5XqX^.[.6X8XeX^.V.^.G.~.`.eX8X5X].,X/.Q.`.`.^.+.F g n M n 1 - 4 1 * * # # - 3 = = - - i - = F ..5 - * # # & # * - ",
"iXiX5X/.}.5X5X8XeXW.,X6X5X6X*.N H ^  .^ o.C.`./.}.`.Q.Q.f.Z.X.N h V.H.n 6 9 : & = & # # 1 3 - - - - i - - Q ' 5 - = & # # & = - ",
"iXiX5X`.5X5X5XeX8XQ.5X5X5X5XN.3 i +.r.+.^ D %.^.}.}./.D.N.+.r.D.Q.`.%.9 n n - & - 1 - 3 5 - & - 3 3 i - * Q Q 3 - * * & # * = - ",
"iXyX}.}.5X5X6XtX}.!.5X5X6XW.D 3 3 F } ..^ ^ &.Q.Q.!.!.].D.S.8X8X|.R.G 9 h 5 < = 3 9 h m 9 = = 3 3 6 i - = Q Q 3 - * # * * - = - ",
"iXeX5X5X5X5X5XeX/.`.6X5X6XN.= + X o * 4 ..&.D./.Q.Q./.tXtXiXiX9X5X3XG.H ^ n = 1 h 9 m n 3 * = 3 3 3 9 - : Q F 3 - - & # * = = - ",
"iX9X5X5X6X5X[.}.^.}.6X5X5X .& o o + o & D.'.}.[././.}.!.5XiXtXqX`.3XW. . .D n 9 N N 9 9 5 - * = = * 6 : 3 Q A 3 - & & & = = = = ",
"yX}.5X5X5X}.5X}.!.5X6X5X}.M + o # & o i '.5X}.].[.5X5Xr.(.iXqXtX3X9X^.*.Z.X.h h 9 6 m 9 3 - = & * * 9 - 1 ^ A 1 - & # & * & * - ",
"`.Q./.[.5X}.`.}.W.8X8X6X5X%.& o # * + +.5X,X}.[.5XeX}.r.J.}.].3XqXyXtXqX).r.^ ..N G A A 9 - 3 - - - 4 - 3 Q M 3 - * # * & # * - ",
"M &.!.,X`.!.Z.I.[.8XeX0X8X).9 o . . : I.[././.`.].wXI.O.O.r.Z.I.}.eXiXtX^.].qX3X|.C.+.%.n 1 h r.H.Z.C.A 4 Q m - - - + # & * * - ",
"& 4 ..D.!.(.T.0XeX0X=XU.0X8X .. o * r.].Q.I.G.C.#.#...S C Q @.d.C.D.[.5X}.eXiXtXqXH.X.H F j I.eX<X,X2X(.m Q ^ 9 : = + + # = * - ",
"o o - F 0.j.w.j.U.$XU.I.tX9X*.& 1 V./.Q.r.O...Q S 9 - - 1 9 C ..O.~ O.C.].iXiXyX8X5X].G.%.6 Z./.f.&.O.U.r.Q N.X.D A 9 - # & - - ",
"+ # & - i ) 9.y l ) f.+. .X.N h n X.D.&.Q S S C 9 - = # * * 1 C Q C C Q +.^.tXiXiXtX9X9XH.} i m D 9 m ~ Z.%.X.D m F D F 3 # - - ",
"+ & = - 1 U e.e.9.U y & & = o & i F ^ Q F M n h 9 m m y : # * 6 m 9 9 j S U Z.qXtXtXqX8X3XX.+ + X . . o i : 1 9 n N h D 3 & - - ",
"o & & = - n _ 9.i.j.{ : . . & 3 i S Q A C 9 3 6 C ~ 4.) S u 1 3 3 1 1 3 j C C r.H.~.!.#.n m 3 * . . # : U ) 3 = 1 i m C - & - - ",
"o + & * - 4 F [ 3.1.P > . o D C.^ F F n M 5 3 C { q.l.l.f.3.V 3 - - - - 4 i i u _ ,X<XZ.F ..H.N . o * : j [ d.H : * = 1 3 & - - ",
". o & - - 3 M ~ 4.3.I ; . & m Q m M n 9 m 6 j 1.g.P.$X$X$Xc.E 2 - & & - - 6 6 h u [ L.t.I./.3XH * & & - 1 4 1 F ^ D : - 4 = - - ",
". . o * - 3 9 C ~ Y u 2 * : j 9 9 C 9 6 n 3 z w.oX%X&X;X&X+X7.a * & o = - 1 6 3 4 q Y ~ %.r.N o o . . + & X o l f.^ = - - - = - ",
". . o & - 3 3 h 6 # o q R y 3 3 j M 5 1 h 1 z i.%X&X-X:X;X%Xx.E > & o # - - < - - : 2 > & 3 . o & . . . . o y L 4.f.M 1 3 - - - ",
". o o o & - 1 N X.D m n j - - 3 n n 3 1 3 1 P u.$X&X;X&X&X&XoXg.W > # o = = * = & * = > * X . X . X . . o 1 l Q ~ 9.K...D 3 - - ",
". . o o o * - N W.`.!.Z.4 * - 5 n 9 3 - : q E g.#X&X;X-X&X%X%Xn.w.z > # & * & & + + & * ; o . . o # . . o - u Q [ 4.w.U.%.3 1 3 ",
"X o o o o & - 9 C.[.wXX.& = 3 5 9 9 1 = q I q.P.-X:X:X:X<X&X&X+Xj.4.u ; + & + o o o + # * & . . + + . . * : 4 U [ 6.w.b.U.N 3 9 ",
". . o . . o = 1 C.9XwXm o & 1 3 3 3 & * 2 j U ] f.=X:X:X0X<X1XU.[ B 4 # o + o . X o o + & * o . . X X - D 4 1 L ~ 3.h.l.$XK.h 9 ",
"X . . . . . o - r.`.W.3 + & - - 3 = + - y [ q.q.q.L.$X&X:X:X$XK.1.R Y u # o + + . o X + & = V y : m ^ @.O.h 3 U U 3.i.l.P.$X9.h ",
"& o X . . . + # F r.C * + # & - - * * z w.+Xv.u.e.j.oX&X&X%Xc.w.6.6.w.6.z # + + o . . o + # U f.0.f.K.f.O.A N ' ] [ w.k.L.$XP.Y ",
"2 & . . . o # # &.qX*.= + + # - - & 2 2.v.%X%Xv.w.6.v.&X&X+Xw.6.6.c.XXu.,.> + # + o . o + # j 9.t.' F G Q Q 9 F 0.~ 3.i.l.L.P.z.",
"x 4 o . # ; * 2 V.yX`.4 + + # # # # u 3.u.k.i.3.<.6.v.<X2XP.3.6.3.e.q.1.I e * + + o . . . + y 0.^ 3 = & & 9 C A Q Q ~ 3.f.r.O.9.",
") V = . ; > w I I.5X`.D o X o # + + z 1.E W u q z 3.oX<X0XXX6.1.W C p z a r > # o X . o o + y ^ 9 * : y 4 * 3 C Q Q U ] #.&.F F ",
"3.) y * 2 > r W D.}.5XN.+ . o o . + P w.w.i.q.3.6.v.%X2X0X+Xx.c.i.q.3.1.E W c ; + o . . . + : S C V y.T.U.{ 2 3 F Q S G &.X.F ^ ",
"6.[ C q l q r ) D.!.^.S.- . o X . $ 3.oXoXl.i.z.U.-X&X0X0X+Xn.*X$XL.j.i.z.g.3.u + X . . . o 2 U C U t.T.<X$X4.1 6 C m F C h C F ",
"6.4.U V l a v Y ^ ^.`.Q.9 . o . . > x.&X:X2X0X0X<X&X&X0X<XoXn.+X;X2X:X;X&X#Xg.R * . . . X o ~ [.r.C Q 9.L.L.z.V 1 9 9 n 3 - h S ",
"4.[ ) ~ V k 4.Z.r.`.,X}.J . . . . a XX&X>X2X0X<X&X&X&X<X&Xn.oXXXXX%X&X&X&X%Xv.1.2 . X . X + r.iXrXf.6 9 u V ] ~ 3 6 3 - - - 6 j ",
"~ ] [ [ L c 9./.D.}.5X5X+.o X . . x +X&X;X;X%Xv.XX%X&X&XoXn.#X+Xu.u.n.XXv.b.x.1.q . . . . . 9.>X:X=X' 3 * l 4.[ 3 3 - * * = - y ",
"Q ~ [ 4.R ` d.).^.,X(.L.) + o . . v +X%X*XXXi.2.u.e.e.x.g.6.E ,.T ,.2.7.7.6.6.1.q . . . . . @.(.[.5X3XH.i S P.y.1 * # + o + = ) ",
"Q Q _ 4.3.q.Z.S.H.I.[.O.y o o + . l v.n.x.w.1.3.XX6.z T E s w r P 6.,.E 1.W I v q . . . . . H *.C.|.Q.C.%.^ ] V - - 1 4 3 4 3 C ",
"Q Q _ 4.q.w.z.0.@.r.}.*.u : o o . u i.w.6.6.8.c.&X$Xe.T s r s P 2.w.6.E T v k v w . . . . X - : = H *.V.*.N F &.r.^.}./.D & . . ",
"Q Q ) 9.y.6.L.Z.@.r.eX/.h 3 & o . q w.6.6.6.w.P.%X+XP.w.,.T E 2.6.6.1.R T I v v u . . . . o n - . 3 m 4 # & y.oX=XuX9XH . . . . ",
"Q ~ ~ 9.9.3.z.T.r.^.iXtXH - = + o 2 w.w.6.6.2.6.6.2.E E E W T v c c a k T ,.T T u . . . . 9 F o . . . o 9 X.I.(.qX~.n o # o . o ",
"~ _ _ [ ~ [ e.U.,XtXyXiXG.= - + # * 3.g.u.w.1.s > z 1.e.j.e.4.T k ; > T 2.1.T I q . . . . # # . . . . 9 V.^.H.S. .& o X o X X X ",
"Q ~ ~ ~ U ) 6.L.8X8XtXaX3XH n = * # W x.x.x.u.i.` I 3.e.j.e.9.E v z ,.6.6.T v k ; . . . o & o . . . & A V.+.M - . X o . . . . . ",
"Q _ Q L v L f.}.5XeXiXqXtXtX}.N * & u w.g.k.b.+X+Xx.P.P.L.z.z.g.6.6.6.6.2.v k r + . . . & : . . . . & 3 4 4 = # . . . . . o . . ",
"Q Q z a a @.`.8XeX9X_.).eXiXiXS.3 : * W 7.w.x.oX%XXXp.z.l.g.u.2.E 6.6.6.E k a > . . . . o + . . . . o . o & o & o . . . . o X . ",
"S u > 4 ..H.R.R.A.A.R.qXtXiXiX3X$.} & > 2.6.g.oX*X*Xx.6.E P c L 1.6.7.6.T s q # . . . . . . . . . . . . . o . o o . . . . . o o ",
"* # : -.M.M.M.m.M.~.eXeXtXiXiXeXH.C.3 o u 6.g.XX%X&X*XP.i.1.L 1.w.x.i.2.c w ; & . . . . . . . . . . . . . . . . . . . . . o + + ",
"# 3 J $.m.m.m.A.~.qXwX3XiXiXiXqX}.W.3 . 1 { q.x.#X&X&X&X&X+XL.P.+XXX6.v w ; ; * . . . . X # . . . . . . . . . . . . . . o # # o ",
"9 F o.$.m.M.R.}.tXqX~.tXiXtXtXpXtXH.n o 6 { ` 2.g.oX%X%X%X&X&X$XXXq.c q ; > > ; . . . . o o . . . . . o o o . . . o . . o # # o ",
"n -.m.m.B.W.5XtXtX).8XyXtXyXiXiXeX|. .& F y.3.I v 1.i.e.h.j.h.q.{ u * # ; q q 0 o . . . X . . . . . j l.0.2 . . . . . . o + o o ",
"9 9 =.H.^.}.9XtX9X9XtXtXyXiXiXiXyXtXS.3 V.f.e.1.k q p a z z v l 2 & + # > w w q o . . . X o . . . . > 4.i.E $ . . . . . o o o & ",
"7 3 g %.`.eXiXtX).qXyXiXiXiXiXiXiXiX3XX...Y h.w.T q * # # * * # + o # = q r r w # . . . . o X . . . O 9 U T a > ; + * & . . . . ",
"9 9 n N -.N.`.).~.eXiXiXiXiXiXiXiXiX|.%.a a g.z.6.L 2 & o o o X X + * q r r r r ; . . . . + o . + 9 b K 9 q e a r w w y 2 * & * ",
"D H =.m.M.m.$.M.`.tXiXiXiXiXiXiXqXS.n p d y g.x.g.3.x q ; * + + $ > w r r r r r w $ . . . X . . + & . . . . o # > q q u u p > > ",
"m.V.A.H.R.~.W.~.9XiXiXiXiXaXiXG.D - & p f > g.b.x.g.6.2.R v k a a a r r r r t t a y . . . . . . . . . . . . . . . & 3 N X.*.J F ",
"A.A.R.~.`.}.5X5XtXiXiXiX9XG.X.3 - > - > f ; u.n.v.x.u.6.6.1.E I c a r r r a s k v m . . . . . . . . . . . . . . . . # - 9 D H H ",
"R.W.`.}.5X8X5X].3X9XR.%.N 1 - - r w - 0 f ; 7.n.n.x.h.6.6.2.` E k r r r r a k c U 4 . . o . . . X . . . . . . . . . . o # & 4 n ",
"`.}.5X8XqX].X.n n N g 3 - - - 0 f : - 0 f + { b.n.x.k.e.6.2.T v k s a r t s z Y A o . . o . . . . X . . . . . . . . . . X o # 3 ",
"5X8X8X3XC.K 7 9 3 - 3 7 7 3 - f r - - 0 f . * R z.x.g.u.w.6.R v v c a a a l Q G - . . . + o o . . o . . . . . . . . . . . . . . ",
"S.V.*.H g 9 9 9 9 3 - - 3 3 p :.4 - - 0 f . . . 2 ] t.j.e.6.2.v v k a B F H C : . . . . # + o o . o X . . . . . . . . . . . + # ",
"9 7 5 5 g g g 9 g 7 - - * - r >.- - - > ;.. . . . . - C O.0.0.O.~ Q F F N 4 o . . . . o & & o + o o . o X . . . . . . . . o + o ",
"3 5 7 3 3 9 9 7 9 g 3 - - & f f - - - > ;.@ . . . . . . . & - 3 3 3 : * o . . . . . . o * * o + o o . o . . . . . . . o + + + + ",
"3 1 < 7 3 1 3 - - 3 < - = - f f - - - > ;.+ o + o o X . . . . . . . . . . . . . . . . . & = o X . X . . . . . . . . & + + + & - ",
"< - - - 5 1 - - & & - - = * >.r - - - > ;.+ # & # + o X . . . . . . . . . . . . . . : B m ` _ _ ) O.~ B b - Q 0.4 & - m F m = - ",
"- - - & - 3 - - - # # - & : :.0 - - - 0 ;.+ # + o + + o o . . . . . . . . . . . . + t.OXU..X.XOXs..XK.a.e.r.s.OXt.` 9.U.OXa.- = ",
"- - - * & - - - = & o & & ; :.> - - - 0 ;.o + + o o o . . X . . . . . . . . . . . o t.OXU..Xs.K. X.XK.a.a.Y..XOXr.` _ r. X( & & ",
"- - - * o & - - * o + # & , :.: - - - 0 f o . o o o X . . . . . . . . . . . . . . . : Q ^ 9.t.}.,XJ.| i B Q @.C - & & C S - * & ",
"- * & & o o & * & X + & + 0 :.: - - - 0 f X . . X o o X o . . . . . . . . . . o & . + S.W.9 H S.R.m.. . . # - - = - * - & & * - "
};
