/* XPM */
static char *wall_south[] = {
/* columns rows colors chars-per-pixel */
"64 64 158 2 ",
"   c #232425",
".  c #252628",
"X  c #27282A",
"o  c #2B2C2D",
"O  c #2E2F30",
"+  c #2F3032",
"@  c #323335",
"#  c #363738",
"$  c #373839",
"%  c #3A3B3D",
"&  c #3E3F40",
"*  c #3F4041",
"=  c #424445",
"-  c #464748",
";  c #474849",
":  c #4A4C4D",
">  c #4E4F50",
",  c #4F5051",
"<  c #525454",
"1  c #565857",
"2  c #555758",
"3  c #555758",
"4  c #565858",
"5  c #575858",
"6  c #565859",
"7  c #575859",
"8  c #575959",
"9  c #56585A",
"0  c #57585A",
"q  c #57595A",
"w  c #57595B",
"e  c #575859",
"r  c #585959",
"t  c #585A59",
"y  c #595A59",
"u  c #58595A",
"i  c #585A5A",
"p  c #595A5A",
"a  c #595B5A",
"s  c #585A5B",
"d  c #595A5B",
"f  c #595B5B",
"g  c #5A5B5A",
"h  c #5A5B5B",
"j  c #5A5C5B",
"k  c #5B5C5B",
"l  c #585A5C",
"z  c #595B5C",
"x  c #595B5D",
"c  c #5A5B5C",
"v  c #5A5C5C",
"b  c #5B5C5C",
"n  c #5B5D5C",
"m  c #5A5C5D",
"M  c #5B5C5D",
"N  c #5B5D5D",
"B  c #5A5C5E",
"V  c #5B5D5E",
"C  c #5B5C5F",
"Z  c #5B5D5F",
"A  c #5C5D5C",
"S  c #5C5D5D",
"D  c #5D5E5C",
"F  c #5C5E5D",
"G  c #5D5F5D",
"H  c #5C5D5E",
"J  c #5C5D5F",
"K  c #5C5E5E",
"L  c #5D5E5E",
"P  c #5D5F5E",
"I  c #5C5E5F",
"U  c #5D5E5F",
"Y  c #5D5F5F",
"T  c #5E5F5E",
"R  c #5E5F5F",
"E  c #5A5C5C",
"W  c #5F605D",
"Q  c #5E605E",
"!  c #5F605E",
"~  c #5E605F",
"^  c #5F605F",
"/  c #5F605F",
"(  c #60615E",
")  c #60615F",
"_  c #61625E",
"`  c #61625F",
"'  c #62635F",
"]  c #60615F",
"[  c #5C5E60",
"{  c #5D5F60",
"}  c #5D5F61",
"|  c #5E5F61",
" . c #5D5F60",
".. c #5E6060",
"X. c #5F6060",
"o. c #5F6160",
"O. c #5E6061",
"+. c #5F6161",
"@. c #5F6163",
"#. c #5F6061",
"$. c #606161",
"%. c #606260",
"&. c #626360",
"*. c #626361",
"=. c #606162",
"-. c #606262",
";. c #616262",
":. c #616362",
">. c #606263",
",. c #616263",
"<. c #616363",
"1. c #626362",
"2. c #636461",
"3. c #636462",
"4. c #626463",
"5. c #636463",
"6. c #636563",
"7. c #656563",
"8. c #626464",
"9. c #636464",
"0. c #636564",
"q. c #636465",
"w. c #636566",
"e. c #646465",
"r. c #646565",
"t. c #646665",
"y. c #656665",
"u. c #666765",
"i. c #646666",
"p. c #656666",
"a. c #656766",
"s. c #656767",
"d. c #666767",
"f. c #626463",
"g. c #676866",
"h. c #676867",
"j. c #666768",
"k. c #666868",
"l. c #676868",
"z. c #676968",
"x. c #686968",
"c. c #686969",
"v. c #696A69",
"b. c #686A6A",
"n. c #6A6B6A",
"m. c #6D6E6E",
"M. c #6E6F6E",
"N. c #6E6F6F",
"B. c #6A6B6B",
"V. c #6F6F70",
"C. c #6F7070",
"Z. c #717272",
"A. c #747474",
"S. c #757675",
"D. c #757676",
"F. c #767776",
"G. c #717272",
"H. c #7C7D7C",
/* pixels */
"; = = ; ; ; ; ; = = = = = - ; ; ; ; ; ; ; ; ; = ; ; - ; ; = = = = = * * ; ; ; ; = ; < < < < , ; < < < U d.d.d.d.d.d.X.U U 8 U l.",
"; = ; U 1 < 1 < < , , < U 8 ; ; < U = > 8 < < ; - ; ; , 8 & % 8 ; ; ; ; , > < < < < 3 8 3 < ; % * ; ; ; ; ; ; = = # % ; ; ; ; X.",
"n.; U d.! U U d.d.X.! U d.U < U ! 8 % ; X.U U < ; , < U U = = 8 > , < 3 < < 8 U 8 8 U U X.U U ; = U < < , , ; ; = # % < U { 8 { ",
"Z.; U d.d.d.! d.d.X.d.d.d.! d.n.d.8 $ ; X.U X.< ; , < < 3 = = U < < U X.U < < 8 U U U U X.U U ; = U < < ; ; ; ; = + & ; < 8 U X.",
"n.= U n.d.d.d.) U U ! U U d.d.U U U # * l.d.8 ; ; , , ; < = = d.{ X.U U U U < 3 U d.X.U U { { ; = < < < > ; < > - o % ; < 8 U U ",
"n.= U n.n.n.X.U U U U U U U < ; , < # % d.d.< ; ; ; ; ; , * % U n.d.< > < 8 < 8 8 { X.X.d.U U ; ; 8 < < < , < 8 < O % ; 8 8 < U ",
"n.= U n.d.d.! < < U U 8 8 3 < ; ; < o & d.U < > ; > - ; > % & < d.U ; ; , < < < < 3 { d.U 8 3 = ; < < , < < < < ; + > < U 8 < U ",
"Z.= 8 g.) ! U < 8 U 8 8 8 3 < ; ; < # = d.3 < < ; ; - - ; * = < U U , - ; < < < < 3 U U U < < = = < < < < < < > = o ; < < < < U ",
"Z.; d.) ) ) U U U U U 8 8 < , ; > 3 $ = d.8 , , ; ; ; ; ; % % , U < , ; ; < 3 8 3 U 8 8 U < < = - 8 < < > , > ; = o ; , , < < U ",
"Z.; d.) U U U U U U U U U < , < U U % ; l.U 3 8 < ; > ; = $ $ , U < < , > , < 8 U 3 < < U U 8 * % < < < > , ; - = o ; < < < < U ",
"Z.; d.d.U U U U d.d.d.U < < U X.< , = ; d.U U U < < 3 < = # $ , U d.U < < < U U U U < < U U U & % 8 < < , , > = # o ; , < < < U ",
"Z.= ! d.d.d.X.d.U < U U 8 < d.X., < = < l.U < < < U d.3 > % & < U d.U U ! ! d.U U U < < U U U % * U , < < < ; ; $ o ; < 3 8 < U ",
"n.o # = - & = * # # = = = % ; , ; ; # $ ; = ; ; ; = - ; ; # # ; U U > ; < , < < < > ; ; ; ; ; o # = # # # & $ # o   % & = = & < ",
"d.* = %     & ; = % % = ; < 8 U U 8 ;   # = & % $ # # ; < < = = % o = ; ; = = ; = & # # o   # % % = * $ # % & % o . ; ; = % # , ",
"n.< < < % % < d.X.U d.g.n.n.d.n.Z.H.Z.# < U 3 < U U U d.n.n.n.n.8 # U d.U U 3 U { 8 ; ; # # < < 8 U U 3 < U { d.> $ < < < < ; U ",
"Z., ; ; % = < U U < U d.d.d.d.d.n.H.n.o = < < < < U d.U d.d.n.Z.d.= d.{ 3 < < < 8 < > > % # ; ; ; < U < < 3 U X.; $ < < < , , U ",
"Z.; = ; # = < U 1 < U U ! d.d.d.n.Z.g.o * ; < U U U U U X.X.l.Z.d.= d.U 8 < < < 8 < ; ; - # ; = ; < U U < < 3 { ; % < < , , > U ",
"Z.; = = o = < < < < U U ) ) d.d.n.n.l.# = ; U ! < 8 U { d.d.U d.n.= l.X.8 < < < U < , < ; # ; = ; < d.U < < U X.< & 8 < , , > U ",
"Z.; = = o = < < < U 8 U d.) d.n.n.n.n.% ; 1 U U < U { d.l.d.X.d.l.= d.X.U U U U X.3 < < = # ; = ; 8 X.< < < U d.< % < , , , > U ",
"Z.- = = o = < < < U U U d.d.d.n.g.d.d.% < d.U U U X.U U d.d.d.n.d.* { X.U U X.! d.U < < # O = ; ; U 3 < < < U d.> + , < , > > U ",
"Z.; ; ; o = < < U U ) ) d.g.d.d.d.d.d.$ < n.d.d.d.d.U 8 U U d.X.U % < g.U U U U d.U < ; # o % , ; 8 < < < < U X.3 O ; 3 < < > U ",
"Z.< < ; O ; < < U d.d.! d.d.d.U d.d.n.% ; n.C.n.d.d.! U U U U U X.% U d.! d.U U X.U , ; o   ; < 3 U < < < 3 { d.d.% - < < < ; 3 ",
"n.; < > o = < U d.d.d.d.d.d.U U d.n.d.$ ; d.d.n.U U ! X.d.X.X.X.d.= d.X.d.d.d.< 8 8 ; > = o ; < < < < < < < 8 U { # * 8 < , ; < ",
"n.; ; , # % U U U U ) d.X.U X.d.d.d.d.$ ; d.U U d.< < 8 U d.U d.d.* l.U U X.X.3 < < ; ; > o ; > ; , < 3 < 8 U U U # ; 8 < > - < ",
"n.- ; 8 & & U < < U U U < U ) d.d.d.d.% , U < U U U < < U U U d.U % d.U < U d.8 < < ; ; ; o - , ; ; < U < U U U U % , < < ; = < ",
"C.; ; > % # < < < 8 U 3 8 U ) ) d.d.d.% ; < < U < U U < U U d.l.d.& X.U 3 8 U 3 < > ; ; ; # = ; ; ; < < < { { { U = > < , ; - 3 ",
"C., ; = # # < < < 8 8 U U U U d.d.l.d.# = , U , < ! U U U U d.d.d.% U U 8 { U < 3 < ; ; ; # = ; > > < < < d.d.X.{ ; < , > ; ; 3 ",
"n.; & = # % 8 < U 8 8 U U U U X.d.n.d.# ; < < ; 8 d.! ! U U d.l.U % d.U U X.{ U U U < < ; % ; ; > < < < U U U U ! ; , , , > = < ",
"n.* # = % % U 8 U U 8 U U U U X.d.n.U O ; , ; ; < U U d.d.d.d.d.; # U d.U X.X.U 3 U < 8 < % ; = ; U U 3 < < < 3 < $ ; < < , ; < ",
"n.& % - % = 8 < < 3 U U { X.X.d.d.n.;   % ; ; < U U d.d.X.d.d.d.< $ U n.X.U U < 8 8 > < ; # ; ; , U U < ; > < 3 ; # ; < < < > < ",
"V.- = ; & - < < < < < U U U X.X.{ l.; X = ; ; U d.g.n.U U { d.n.X.% d.n.d.d.X.U 3 < ; ; ; # ; ; < U , < , , < U -   $ < < < , 8 ",
"Z.< > > % = < < < 8 8 3 U X.U X.X.l.; o ; ; < ! n.Z.d.U U { d.n.d.= d.n.d.U d.< < < ; ; = o # ; < < < < < , < U ; o = < ; ; > U ",
"Z.< < - $ = < 8 U U < < U U U X.d.l.n.# - < < < X.d.! U X.d.d.n.X.= U U U ! U < < < , ; % X o = < < < < < < < < < % , < ; ; ; U ",
"C., ; = # ; U U U 8 < 3 U U d.X.d.d.n.% = ; < 8 X.U U U X.d.d.U 8 * U 1 < U U < < < , ; #   + = > ; < < < < < < < % ; < < , ; < ",
"n.; = * # = 8 3 < 8 < < U U d.U U d.U $ = ; < U U < < U U U X.d.< % U U < U U < < < , , = o % = , ; , < < < < < U % ; < , , ; < ",
"n.= = = # = < 3 < < < U U 8 U ! ! d.U # ; ; < U < < < 8 U d.d.d.U = U U 8 < < < , < ; ; ; % = , < ; > < , , , < U % ; < , , ; < ",
"C.= = ; # = U 8 < U U U U U ! d.d.d.U # ; , U U < 8 < U X.d.d.d.U * U U < < < < < < ; ; - $ < U < ; , < < , < < < $ - < < < , 8 ",
"C.> ; < # % < = % = ; < U U U 8 d.d.< o , U , , ; ; = % = ; d.d.< o - ; ; > < ; ; ; ; , ; + ; < < < < < , , < ; %   % ; ; ; ; U ",
"j.= = = o o # o + + # $ % % # # % = % o = = % % %   X O + # = = + X O # o # % O # o # % % o # $ # % % & # # % # O o # # o O # < ",
"Z.U U < # # ; < < < ; ; < > X % ; ; ; < < < U 3 < # # < < < 8 < = & = ; ; % % - < % % > < U = + ; > ; ; - = ; - ; = & * o & ; U ",
"C.U d.U = % < < < < < < 1 U # ; , ; - ; > < < 8 < % = U 8 8 U d.d.X.X.U U U U d.d.U U d.U U = $ , < < < < > > ; ; - % % o % = U ",
"8 U ! U % % < < < < < < < < # = = = = ; ; ; , < < % % , < , < 3 U 8 U U < < 8 8 U U U U U U = % < < < < ; = ; ; ; ; = % o = = < ",
"; 8 U U % * < 8 < < < < , < # * & * ; ; ; ; > < < & = < < > < < 8 < 8 < < < 3 < < U U U 8 U ; % < < < < ; = & & = ; ; = O = ; = ",
"; < < U $ = < < < < < < < < O % = = ; ; ; ; , < < % ; < < < < 8 3 < < < < < U 8 U U U U 8 U < * < , > ; ; & & = ; = ; = + % - = ",
", < , < # & > , < < , , < < o $ ; ; ; ; ; ; , < < # = U < 3 3 U < < 8 8 < < < U U 8 8 8 U U 1 = < , , ; ; = * > , ; ; - o $ ; = ",
", < < < # # > , , , , , < < + % = = ; , , < < U U % ; U < < < < 8 3 U U < < < U 8 U U U U U < = < , , ; ; ; ; < < ; - % . % = = ",
", < < < % % > , , > , < 8 < # # & = ; > ; < U < U = = 3 ; ; < < < < U < < < < U U U U U U U ; * < < , > ; ; < , - = * # . = = = ",
"> < < < # % ; , , > < < U < O $ = = ; ; , < < , < % = U ; > < < 8 U U < < < < U U U ! U U U ; % < < < < , ; ; , ; ; = %   = ; = ",
"> , < , + % ; < < < < < < 1 # & ; = ; ; < < > < 3 % % < < < 8 U U U U 3 < < 3 U U U U 3 < U < = < , , , , ; ; ; ; ; ; # . = - % ",
"; ; , ; # # = ; , < < < < < # % = % = ; < > ; ; < # % ; ; < 8 X.! U U { < < 3 ; - - ; = = < < = < < , , > < ; ; < < ; #   & ; % ",
"* o # # O o # # # % $ % % % o o # # # # % % % # % # o # & = & ; ; = = % % & % # # +     o % $ X # # # # # # o # % # o     o O o ",
"= % = ; ; * = ; , = # - ; ; < < < < < 3 8 3 8 < 3 ; # + > < > 8 < < ; O ; ; ; ; , = % % ; ; ; * o % = = - - - ; - & = ; < - - % ",
"& % = = ; ; ; ; < ; * < < < < < < < < < < < < 3 X.< $ % < X.l.! 8 U 8 % U 8 < U 3 , < 3 , > < ; % < ; - ; < < < < < < < < < , % ",
"& $ $ & = = - - > = & ; , < < < < < , < < < < 3 X., # = 8 3 U U < U , % 3 3 < < < < < < ; ; , = $ ; = = - ; < < < < , , , < ; % ",
"* # % & & = ; ; ; % % ; > < < < < , < < < < < < U 8 % = > > > < < U - $ < 8 3 < < < , < > ; < * $ ; ; ; ; > < , < < < < < , > % ",
"= % % * = = ; ; ; # # ; < < < < < < < < < < < < < < $ & ; ; ; , < 3 = # 8 U 8 3 < < ; ; < ; ; # # ; ; , , , , , , , < < < < > % ",
"& % = = - ; > , < = $ , < < < < < < < < < < < < < < % & , ; - , < < * # 8 U U U 3 < ; = ; & % # $ < < < , > , < , , , < < , ; % ",
"% $ = ; ; , < < 3 ; % < < < , < < < < < < < < < < 3 & = < < > < < < % o ; U U < < < < ; ; = % # % , , < , , > , , , , , , , > % ",
"& # % = , < < < 8 ; * , < < < < < < < < < < < < < U & = < < < < < U = o ; U U < < < < ; = - = # # - - , < < > , < < < < < , ; % ",
"& # * ; ; ; > , < ; = < < < < 3 8 < < < , < < < < U = - < < < < < 8 , $ < U < < < < < > = % ; $ # = = ; < < , , , < < < < > ; % ",
"& # = ; = * ; , < ; - < < < < < < < < < , < < < U ! = ; 3 < , , < < ; # ; 8 U U < < < < ; = ; % # ; ; ; ; , < < < < < < < < ; % ",
"& # * ; = % ; , , - % < < , < < < < < < < < < < 1 U = ; < < ; > < < ; # ; < < 3 3 8 < , ; ; = # # - - * ; , < < < < < < < < ; = ",
"% # % = ; = = ; ; = # = = ; ; ; ; ; > , < , > > , < # = ; ; ; ; ; ; = # ; < < < < < > , , ; % + # % % & ; ; ; ; > , > ; , < ; $ ",
"% % % * = = & = & % % % % % % % & = = = = = = & % % # % % % % % # # # # % % * & & % & & % % # # # # # # $ % % % $ % % % % % % # "
};
