/* XPM */
static char *wall_west[] = {
/* columns rows colors chars-per-pixel */
"64 64 163 2 ",
"   c #592D14",
".  c #5E3014",
"X  c #633517",
"o  c #653719",
"O  c #673819",
"+  c #6C3D1C",
"@  c #703B16",
"#  c #703F1D",
"$  c #6D3E20",
"%  c #73411E",
"&  c #79441E",
"*  c #754422",
"=  c #7A4622",
"-  c #7C4A25",
";  c #7D4C29",
":  c #824D25",
">  c #824E29",
",  c #875027",
"<  c #895026",
"1  c #85512B",
"2  c #8B542C",
"3  c #8F582F",
"4  c #91562B",
"5  c #935A2E",
"6  c #9A5D2F",
"7  c #855430",
"8  c #8B5731",
"9  c #8E5932",
"0  c #8F5D39",
"q  c #945C33",
"w  c #995E31",
"e  c #935F38",
"r  c #976036",
"t  c #9C6134",
"y  c #966138",
"u  c #9C653A",
"i  c #9F683E",
"p  c #A26535",
"a  c #A86533",
"s  c #A76837",
"d  c #AA6937",
"f  c #A16739",
"g  c #A4693B",
"h  c #AB6C3B",
"j  c #B06F3B",
"k  c #AF703E",
"l  c #B2713E",
"z  c #BA753F",
"x  c #C1773F",
"c  c #C57D3F",
"v  c #9D6840",
"b  c #A56D42",
"n  c #A96F41",
"m  c #AD7243",
"M  c #AD7448",
"N  c #B37543",
"B  c #BA7642",
"V  c #B67846",
"C  c #BB7A46",
"Z  c #B17748",
"A  c #B57A4A",
"S  c #BC7D4A",
"D  c #B97E50",
"F  c #C07741",
"G  c #C27C46",
"H  c #C27F49",
"J  c #C47F49",
"K  c #C17F49",
"L  c #BF804B",
"P  c #BF814F",
"I  c #BE804D",
"U  c #BF8455",
"Y  c #BE8250",
"T  c #C68246",
"R  c #C88447",
"E  c #C88245",
"W  c #C1804B",
"Q  c #C3804A",
"!  c #C2814A",
"~  c #C2804B",
"^  c #C3804B",
"/  c #C2814B",
"(  c #C4814B",
")  c #C6814B",
"_  c #C4824A",
"`  c #C5824A",
"'  c #C5824B",
"]  c #C3834D",
"[  c #C5814C",
"{  c #C4824C",
"}  c #C5824C",
"|  c #C5834D",
" . c #C7854D",
".. c #C7844D",
"X. c #C7844E",
"o. c #C7854E",
"O. c #C3824D",
"+. c #C88249",
"@. c #CA8449",
"#. c #CA864B",
"$. c #C9854D",
"%. c #CA844D",
"&. c #C9854E",
"*. c #C9864E",
"=. c #C9864F",
"-. c #C9874F",
";. c #CB874F",
":. c #CC874F",
">. c #C9864E",
",. c #CC894E",
"<. c #C68651",
"1. c #C48552",
"2. c #C98750",
"3. c #C98750",
"4. c #C78855",
"5. c #CA8850",
"6. c #CB8850",
"7. c #CB8951",
"8. c #CA8953",
"9. c #CB8953",
"0. c #CC8850",
"q. c #CC8851",
"w. c #CD8951",
"e. c #CD8950",
"r. c #CC8A51",
"t. c #CD8A51",
"y. c #CE8A51",
"u. c #CD8A52",
"i. c #CD8B52",
"p. c #CC8A53",
"a. c #CE8B52",
"s. c #CE8B53",
"d. c #CE8C53",
"f. c #CF8C53",
"g. c #CD8C54",
"h. c #CF8D54",
"j. c #CF8D56",
"k. c #CD8B53",
"l. c #C88D5C",
"z. c #CD8E59",
"x. c #D08D55",
"c. c #D08E55",
"v. c #D18F57",
"b. c #D28F56",
"n. c #D08E56",
"m. c #D08F59",
"M. c #CF905C",
"N. c #D29057",
"B. c #D4925B",
"V. c #D2925C",
"C. c #D2935F",
"Z. c #D5935C",
"A. c #D6945D",
"S. c #D7965E",
"D. c #D4935C",
"F. c #D69661",
"G. c #D89760",
"H. c #D79863",
"J. c #DB9C67",
"K. c #DA9A64",
"L. c #DF9F69",
"P. c #DE9E68",
"I. c #DFA06C",
/* pixels */
"= , = U J.L.l.e 2 2 S ....C N s q q = O = q = ; 2 H ....@.C ..S s G ....t q ..N g e b u , = s d d s l l N s 4 C g.g.@.g.g.g.g.d ",
", , ; q m S b u g.C B @.@.g.2.G N t ; + ; , > * 9 ..........@.d = s d g * o 5 d t M N.N.P g q 5 d 5 d l d 4 5 ..g.@.H g.g.g.N.C ",
"N t N l d q = ; <.S t H @.@.@.g.@.@.m ; * = , * ; S ........C s f d l N g 2 d s C N.N.N.N.g.C g 5 , 5 t , % 5 B g.g.C g.g.H ..N ",
"g t C @.@.C q * 2 g t s s j ..g.g.g.N > w N C S n 9 2 d C d g d N B B C G N s f g.v.v.g.g.g.C N t 5 g N d : 6 l g.N A g.g.....C ",
"4 s N g.v...C 2 t @.@.B d s n C ..d t g g.g.g.g.g.m * % 2 2 q k l N S C S d g g g.g.g...@...N d C g.v.v.N.N w j d Z A g.g.g.N.N ",
"k g.@.:.g...l s t G c E G d 5 : 2 > 2 ..g.g.@.g.g.g.g q d N d q w s d d s q V q C @.S C N g 2 P v.N.J.N.J.N.g 4 5 t f m ..g.N q ",
"4.g.S ..@.@...l s j x G G B B w #   = g.g.@.....@.g.d s N g s 2 % 2 f q : = = : w g d s g 2 % m v.v.N.N.N.N.g.<...t = , 4 q 5 g ",
"d d B H @.@.@.@.B t z G G G G G 5 + > ..g.......@...s d d s 4 4 t ..P V m d : 2 f d d d l f * : ..g.g.J.N.N.N.G.N.s 2 d f = N B ",
"..C N C H C g.N...t d B G G G G C 2 % q d d d g t q 2 V d 6 4 4 d g.S A N d 2 : w s s d d t + # 2 S g.G.G.G.J.N.C d C G B f 2.G ",
"..N C G ....g.g.@.t 5 d l C G G G 5 % = q 2 2 g g q , q q 4 4 2 N v.g.V N g q : s 2 % * = + o + + > d g.v.N.g.n N G G C B d ..H ",
"N G @.@...C N N d t m q d g d C N : 2 S N.<.P N.G.g...t : = ; m m.g.g.<.N d 4 4 l d t % = 2 5 : % % : N g.S 2 w G C C C C g ..g.",
"d d g w 2 2 : = = 2 t t A 9 g 5 2 % t N.N.<.<.N.N.N.v.@.N , 9 l.J.N.g.g.<.N 5 4 d d s = 5 l d s w t 6 s d t % t E C C C C d q N ",
": & % 2 d d s 5 2 N <.g.g.<.S n w : t N.g.l...g.@.@.@.:.:.q , 4.J.G.g.g...N 4 5 d B C 2 s j d d d d d d d d , 2 E G G S C N % : ",
"2 % = d H B N s 2 S J.G.v.g.v.g...d s v.N.....S S H :.g...: * u g.N.g...S d , s C C H t 5 l d d d d d d d l : = C @.G S ..N 5 w ",
"s 2 > t s s t 6 2 S N.N.g.g.g.g.g.S w S g.S g.C ........u % + = q m m g q : = d S N H t % t d d 6 t s d l t , s 9 ..@.@.N 5 d d ",
"s 5 q t d C l d 5 N N.g.v.g.g.g.g.S 2 > 9 , t N N t q u , + + + # = > = +   * d N N C g + % 5 2 = = : 2 2 t d l 5 u v..., t d s ",
"t 5 f w d l B d 2 g <.N ........g.C , * = > ; > , , , d u = q g g f g g t = % f l k l 5 + % : q f d d d g u q t s 2 t , q d d t ",
"t t d <.N d N d 5 n S g g S S S S g ; , t g t q q q u g 3 f N N l N N N N u % 2 t t 2 , q N S ..<...S N N N q : l l * 2 d d t q ",
"q N A <.s 2 q g g S g.g.N t g d t > = t N N d t N m g C q g d N N N N N m s t w : o X q ..g.@.H S V N N N N w > q 2 9 f d s q 9 ",
"q N N.N.S 5 q ..g.<.g.g...d = 9 m q 2 g N N g g d d d d 2 t g N V N d q t C ....g + + d g...H ....S V S S f > 9 f u q q d w q i ",
"g <.g.N.g.d 2 g ..g...<.S C q <.<.N > u N l N d d N N m : , s s g q = + g g.g.g.S q 5 l ..g.g.g.g.g...C q 2 N S C C V q > 2 2 u ",
"N l C ..@.d = g S S ..N N N , m N m t 2 d N N d d d d s & . * = > 2 u , y g.g.g...g 2 k <.g.g.g.g...d t s N S @.....@.g - ; q P ",
"@...S ..S 4 = f N <.S ..C q t <...C ..N 2 , 2 2 5 s w t 5 % + , g ..g.b u b ..g.S 2 % w d N C C N s , m C C C C C S g.t = 9 r g.",
"g.g.@.V 2 * * = m H d l q : m ..........d * o q ..g.S m d g = u g.v.g.N m , 2 q , * = , 5 5 t t t f q C C C C C C C C 2 > 7 , m ",
"n n q > , 9 b ; = , , , # * d ..S S P ..H 9 > ..N.g...S g g > g g.g.g...m q * 7 t s m d s w w 2 , ; > N N B N C S N s = , 9 , ; ",
"2 = X 9 N u v ; > t t 2 , ; g ........H C t q g.N.g.g.C C V , d g.g.g.g.g.d 9 m N l l l d d d d s 2 = 2 q t t N V d 2 2 g m g u ",
"m q % 9 d t , , N H S g g u q C N P S C N f 5 g.g.g.g.H C f = N v.g.g.g.g.g e N A N l N N d d d d t 2 u g N d N d S S g m N A A ",
"n , q S S C 5 2 l S g.g.g.P q g C ..P ..C y q N S g.g...n = = m g.g.g.g.<.m q m A N N l N d s s s 2 q m N V N m m u g u m m N N ",
"u g A ..P C t 2 d S g.g.g.N.m , s B C C g 9 9 2 g g u 2 + $ q m S g.g.g...d 2 m S N N N N d s d t q d N N N N N N 9 ; u b n m b ",
"N g S N C N f 3 N g.N.g.g.g.g.q * , 5 , ; u f = + * ; = + * g g.N N V ..S t 9 N V N N m f 2 , : > u m N N N N N V u + f g d m q ",
"q N S N d k d 3 S g.N...N ..g.q ; u u u = r q = 9 S <.<.b , g ..C A N g q q q b m g u 2 2 = * = * y u N N N A N N g + 9 d N m , ",
"t ....S N k g 2 S v.g...l.m.N 9 S g.H N q q e y <.N.N...<.S q q q u r y ; t u q q > O q N l d l > = : n N N V V V 9 O O * ; = * ",
"d g.g...S d m q m v.g.l.M.m 2 m g.g.g.N d u t A g.g.g.C ..v...f > 2 2 , ; > u A ..m , f C B C N : + @ : 2 , 2 q , + % * = = 2 f ",
"f ..g.g...N N q q N.g.<.u * q 2.g.g.g.C N * q g.v.g.g.g.g.N.g.g.g g u y u m <.g.g.@.g u C N d q : 2 w 5 = X + * = = , q s t g N ",
"q N ..g...N s 2 = u g r 9 = q k d ....S d % u J.N.g.g.g.N.P V g.g.N 2 ; g g.v.v.g.@.N , t q = 5 g N S V i * ; q 2 = t d d s q 9 ",
"= > q N ..S g , 9 i m S U q d m r S V g 2 + q S P 2.g.g.N.<.l.N.g.g.q , <.g.v.g.g.@.C t q q m S <.U S S m ; ; , , 2 f g g g : + ",
"9 > = > t d w > i A g.l.<.A g , 2 5 2 = % + * t C g.g.g.N.N.v.g.g.v.g 9 g.v.@...g.g.C f d A P P P U P A b * = : : : = ; , = * 9 ",
"f g b 7 $ % * , S l.<.l.l.g.g.i , 2 q m l t = > s ..v.<.g.N.v.g.g.g.t , :.:.g.g.g.S f q m S S S S P U A , * s N C f = * 2 : u g.",
"g l.l.Z 9 * + 9 g.g.l.m.N.g.g.m t d C v.g.C d 5 2 f S ..4.g.<.<.S g * + m @.g.g.S 3 q m A A A S A S b , * = C g.g.S 2 : 6 2 A H.",
"l.G.N.N.A q * 9 <.4.l.g.g.g.g.u 9 N N.H.v.g.G d 5 2 u u U g.q , > * + o * g S m , q A U S S A S m u 9 = , 2 ..J.J.g.N t d n m A ",
"J.J.H.N.N.S 0 9 A ..g.g.g.g.P t g g.J.g.@.2.@.G d t 2 > g g 9 9 q q q q = + % + = V P P U S P m g ..S q u t g.L.N.N.g...4.b m l.",
"J.J.N.N.G.N.u 9 A g.g.g.g.<.n ..2...m.m.N.g.g.@.H l t 2 > = 0 f N H ..H q * # * > g S P S m q = N C j s > q ..g.J.l.g.g.<.t m N.",
"N.l.S S <.g.q , S v.v.g.g...g <.S <.m.m.v.@.H l B d 6 5 * , u g C C T ..q = 5 s q 4 s n 9 * * % t d d w > g @.l d g g.N.g.m f g.",
"..d N V N n = 7 <.v.g.g.g...9 q <.l.g.v.2.C s d s 2 2 > = n f g j j z B 2 t S g.C s , : = = = : 2 t 5 = = N g.g.C N <.<.g.S 9 g ",
"g d k d S g * , m P ..g.g.S = 2 S ..C C l d d s 2 : 2 = = g u d d d l g 2 S N.N.g...d q g g g g d d : + > S v.N.S 2 5 k A q + = ",
"q g s 2 5 , > = q u g N m q ; , 2 w d t t t t q 2 g S g > u q f d d d q 2 <.N.L.J.N.g.A ..H ....P S t u u H g.2.d = + , * X o * ",
"= , q t , = 2 g k k d g...u M b r q 2 > 2 g g g N 2.J.N.t g = = w t t = 2 <.N.J.L.L.J.H.S g.P g.g.g.f q t ..g.C 4 + % : : + + + ",
"q u g N u 2 N g.g.g...P m D J.H.H.l.D m g N g S v.N.G.l.m V g % + % % O , ..v.N.J.L.L.H.S g.S ....S 2 + = n S s & * 5 s d 2 > y ",
"q u b A g 2 ..J.N.J.N.N 9 b l.N.H.N.N.g...q i g.v.g.U N.g.2.@.t 2 t > * % u N ..l.N.4.M C m A g.N 9 * , 9 q , & + 2 ..g.g...N A ",
"u n m m n q 2.L.L.J.N.S q P I.L.N.N.N.G.l.9 g v.g.U <.J.g...g.u 2 N f m t g s 5 m m m r q r 9 9 2 = = ; ; q 9 + * d N.N.g.g.S m ",
"A b b M b 5 g.L.J.g.l...q t <.J.L.H.l.U u * = b m A S N.N.v.<.= + = , N B d 5 # > q t t q 2 = = 2 t t u 9 = * ; * S G.G.N.N.<.m ",
"S A b A m q N g...m <.l.m d s t f q 2 = = 5 5 5 q n m m <.n 9 = g g = 6 a 4 * u S S S ....S m = g d N <.<.N t 9 = S N.H.J.J.g.g ",
"S A g m g > 4 t : q l.N.N.N.S : q s s q = s d d t , ; > 2 , , g ..d : : 2 = g g.N.N.N.N.g.-.C > q t d <.g.4.C g > n ..g.J.J.N.g ",
"y u q 2 : : N N f 2 g ..N.J.S s C l d d : 5 d d d > * > d H H ....S N 2 * , l.J.N.v.N.N.<.P q 7 N k V m g.g...k 9 q N J.L.J.M.g ",
"n N m : = N g.g.g.V , , m A q N G d d d 2 , s s w = * 2 N g.@.....S N q O , m.J.N.N.N.g...t = 9 f N N.<.l.N.g.l t , t U S n t > ",
"S A m = g g.g.g.g.C , * = = > C B d d d > * : 2 t t 2 : w S @.@...N g ; = , m g.N.N.N.g.g * ; q A V N.H.N.N.H.N t * q m q = * , ",
"A V q > g.g.g.g.g.t q s s w 2 N N j d 2 = 9 u N g.g.@.C t t B ..C f q m ....S C C S N q , t 9 9 f S g.g.<.g.N.l 5 2 m <.l.A 9 9 ",
"g t , = d g.g.g.S s d d d d 4 2 t u 2 * q ..g.g.g.g.g.g...w s l d * q g.g.g.g.g.C > = 3 m ..A , 9 N ..g...S ..s 2 g l.4.N.N.g.n ",
"g.u g g.P ..N u , f d d d d q = > > = = u g.g...g.g.g.g.g.d s s w f q m g.g.g.g.N = + g S A m , = , w l C l d 5 , S G.H.J.L.J.S ",
"g 2 S J.N.g.m b u q d N d t 2 s d q 4 ; q k H ..g.g.g.g.g.g 5 6 C g.@.u f ..V d t n 2 * , , 2 t w 2 = : 5 t 5 : 9 l.H.<.N.J.J.u ",
"2 ; S J.N.N.Z S l., , , , q d C B g g > t N S g.g.g.g.C d t k s N @.g...2 : 2 d ..g...q o > N N l g f 2 = : = + , <.4.Z <.H.N.9 ",
"C g m J.N.N.<.S l.> , % t G G G B g d t 2 g ..g.g...d s d S ..N l ..g.g.m 2 S g.g.g.g..., q d k l N @...k 2 % % 5 w t m n <.A = ",
"l w 9 H.H.<.Z m b , m 2 w G B B l N f g 5 5 ....S s d G H ....l N g.@.g...k g.g.g.g.2.g.t t g g l C G H C d : 6 ..@...N t 2 > + ",
"t w > H.J.M.Z 4.9 * q , : s B B l H g d 5 = 2 2 , d ....H H ..l d @.@.g...l g.g.g.g.2.g.t 2 s d s l B N j l 4 d g.g.g.g.g.m 2 % "
};
