/* XPM */
static char *wall02_north[] = {
/* columns rows colors chars-per-pixel */
"64 64 231 2 ",
"   c #1F161C",
".  c #1F181E",
"X  c #20171D",
"o  c #21181E",
"O  c #2B1A1F",
"+  c #2F171E",
"@  c #33171F",
"#  c #241C22",
"$  c #2C1D22",
"%  c #331C21",
"&  c #3C1C22",
"*  c #272025",
"=  c #292126",
"-  c #2B2429",
";  c #27212A",
":  c #342125",
">  c #3C2326",
",  c #332A2D",
"<  c #37272A",
"1  c #382C36",
"2  c #322C38",
"3  c #461E22",
"4  c #5A1E25",
"5  c #671E27",
"6  c #7B1F29",
"7  c #751D28",
"8  c #442225",
"9  c #4C2224",
"0  c #472A2A",
"q  c #542326",
"w  c #592929",
"e  c #57322D",
"r  c #453535",
"t  c #483A3C",
"y  c #5B3734",
"u  c #4B2D30",
"i  c #672428",
"p  c #752028",
"a  c #7D2029",
"s  c #64332E",
"d  c #69362E",
"f  c #7A362E",
"g  c #633B34",
"h  c #6B3D34",
"j  c #653534",
"k  c #773C33",
"l  c #742D37",
"z  c #69433A",
"x  c #784639",
"c  c #51403E",
"v  c #3C3E5B",
"b  c #343348",
"n  c #3B3F61",
"m  c #4A3F44",
"M  c #473E43",
"N  c #4E3B4E",
"B  c #713E58",
"V  c #3E456B",
"C  c #4C4246",
"Z  c #4D444A",
"A  c #544748",
"S  c #564A53",
"D  c #695859",
"F  c #714B4D",
"G  c #71615E",
"H  c #4E5076",
"J  c #674E6E",
"K  c #796868",
"L  c #75656E",
"P  c #841E2A",
"I  c #8D1D2B",
"U  c #951C2C",
"Y  c #9C1C2D",
"T  c #991E30",
"R  c #A9172A",
"E  c #A31D2D",
"W  c #AA1B2C",
"Q  c #A81427",
"!  c #83212B",
"~  c #8B252D",
"^  c #94222E",
"/  c #9B212E",
"(  c #922B2F",
")  c #8B2B34",
"_  c #962530",
"`  c #9A2532",
"'  c #9B2B34",
"]  c #9A2B35",
"[  c #873833",
"{  c #9D3135",
"}  c #963B38",
"|  c #80362F",
" . c #A4212F",
".. c #AA202F",
"X. c #A32431",
"o. c #AC2531",
"O. c #AD2A35",
"+. c #AE2D39",
"@. c #A42B35",
"#. c #B02E36",
"$. c #A2353C",
"%. c #AE333D",
"&. c #A43B3A",
"*. c #A33336",
"=. c #B1343B",
"-. c #B43B3C",
";. c #B03037",
":. c #874838",
">. c #934C3B",
",. c #984938",
"<. c #88513C",
"1. c #9D543C",
"2. c #95523A",
"3. c #A7473D",
"4. c #A3543C",
"5. c #A4583D",
"6. c #873B48",
"7. c #9B3D45",
"8. c #A83A42",
"9. c #B23B43",
"0. c #B23843",
"q. c #885549",
"w. c #995643",
"e. c #AB4844",
"r. c #B44244",
"t. c #B5444B",
"y. c #B94C4C",
"u. c #B64949",
"i. c #A45A42",
"p. c #AB5B45",
"a. c #A75743",
"s. c #B35544",
"d. c #B65A49",
"f. c #B74D52",
"g. c #B84B51",
"h. c #B45453",
"j. c #BA5354",
"k. c #BC5B5A",
"l. c #B95859",
"z. c #96634D",
"x. c #AC624B",
"c. c #B4634B",
"v. c #BC654C",
"b. c #BD694D",
"n. c #B36649",
"m. c #BC625D",
"M. c #B96756",
"N. c #B77B5A",
"B. c #BD5D61",
"V. c #897976",
"C. c #8B7570",
"Z. c #BE6363",
"A. c #BE6868",
"S. c #BA756C",
"D. c #8F5F61",
"F. c #C36C4E",
"G. c #C46D50",
"H. c #C66B56",
"J. c #CB7252",
"K. c #CD7B55",
"L. c #C77654",
"P. c #D07E56",
"I. c #C1714F",
"U. c #C16A69",
"Y. c #C4756A",
"T. c #C47374",
"R. c #C67B7A",
"E. c #C36F71",
"W. c #C05F51",
"Q. c #BC835B",
"!. c #BD8662",
"~. c #B78561",
"^. c #AE8679",
"/. c #93817F",
"(. c #CE8558",
"). c #D28759",
"_. c #D7935E",
"`. c #C88967",
"'. c #DC9D62",
"]. c #DB9C62",
"[. c #D99B6A",
"{. c #C98679",
"}. c #CC9070",
"|. c #DCA579",
" X c #DCA06B",
".X c #4F5D96",
"XX c #515F97",
"oX c #515788",
"OX c #605682",
"+X c #526098",
"@X c #8C7D89",
"#X c #9A8A86",
"$X c #A5928C",
"%X c #B8958C",
"&X c #AB9A96",
"*X c #B69D95",
"=X c #AE8983",
"-X c #B4A39B",
";X c #B8A9A3",
":X c #BDB1AB",
">X c #CB8886",
",X c #CD938B",
"<X c #D19994",
"1X c #CD9590",
"2X c #DDAA87",
"3X c #D5A89C",
"4X c #DEB29C",
"5X c #CBA598",
"6X c #C5AEA5",
"7X c #D6AAA3",
"8X c #C4B3AA",
"9X c #DEB4A4",
"0X c #D9B5AB",
"qX c #CCBDB8",
"wX c #DDBDB3",
"eX c #E1BDAE",
"rX c #DAC5BA",
"tX c #CEC0BA",
"yX c #E5CABE",
"uX c #E1C5B9",
"iX c #CEC3C2",
"pX c #DCCEC4",
"aX c #D3C7C2",
"sX c #DED1C8",
"dX c #E4CDC2",
"fX c #E3D5CC",
"gX c #E6D4C9",
"hX c #ECDED3",
"jX c #E7DAD0",
"kX c #EDE1D6",
"lX c #F0E3D8",
/* pixels */
"O.=.-.-.=.-.=.=.-.-.-.=.;.*.0 - - - - - - - - - - - - - - - - - - - - - - - - - - - - - - - - - - - - - r ~.].].].).Q.).].].].].",
"O.u.W.d.u.-.-.=.r.u.l.y.-.X.8 = = = - - - - - - - - - - - - - - - - - - - - - - - - - - - - - - - - - - r !.].]._.N.z.N.).)._.].",
"o.=.-.=.=.o.o.o.o.O.=.-.=.X.8 # # # = * * - - - - - - - - - - - - - - - - - - - - - - - - - - - - - - - r !.].].].].].].].].].].",
"o.o.o.o.o.o.o.o.o.o.o.o.o. .& # # # # # # # - - = # = - = = - - - - - - - - - - - - - - - - - - - - - - r !.].).v.L.v.(.].].].].",
"o.o.;.=.-.#.O.#.#.O.o.o.o.E & o # # # # # # * = # # = * # = - = - - - - - - - - - - - - - - - - - - - - r !.].K.' s.' c._._.].].",
"o.o.u.s.s.-.-.-.-.=.#.O...E & # # # # # # = * = = * - - - - - - - - - - - - - - - - - - - - - - - - - - r N.p.3.( s.{ 3.3.I.].].",
"+.g.l.l.l.l.j.l.j.l.j.g.t.@.& o # # # # # # # * * = - - - - - - - - - - - - - - - = - - - - - - - - - - r N.&.( ( s.{ _ _ v.].].",
"O.g.l.l.l.H.l.l.l.l.m.m.j.@.& o # # # # # # # # # # = = = - - - - - - - - - = - - * - - - - - - - - - - r ~.(.b.( s.{ { b._.].].",
"o.-.Y.H.Y.}.H.u.l.j.{.Y.t.E & o # # o # # # # # # # = - = = = - = # # = - - - - - = - - - - - - - - - - r !._.d.( s.{ p.(._.].].",
"..9.U.H.Y.`.Y.y.j.l.Y.Y.r.E & . o o o # o # # # # * = # # # # # o # # o # # * = = # = = = - - - - - - - r N.3._ _ s.' p.&.s.].].",
"..o.O.=.=.3.u.u.u.;.#.#.W E & . o o o # # # # # # # # # # # o o o o # X   o # = # # # # - - - - - - - - r N.3.&.( s.' &.' e.].].",
"..o.o.....O.#.#.#.o...W W E & o o o # o # # # # # # # o o o o # o # o X X   o * * # # = - - - - - - - - r !.).I.' p.{ _ _ b.].].",
"o.=.=.=.=.=.=.=.=.-.=.=.;.E &   X o o o # # # # o # o o o   . o X X o   X   X # # # - - - - - - - - - - r ~.].(.3.e.b.F.L._.].].",
"o.u.u.u.u.u.u.u.u.u.j.u.r.E &   X o o o # # # o   o # # # > > # # : 0 : o   X o # - - - - - - - - - - - r !.d.&.{ ` *.&.s.].].].",
"W Z.B.l.l.>X=.....o.R.T.+.E &           o o X o o # e x :.2.1.>.x :.i.2.g #     o = - - - - - - - - - - r !.e.^ $.&.*._ &.].].].",
"W ,X1X7X>XwX9.W O.U.7XuX>XX.&         X o X X o # q :.4.5.p.d.c.G.G.G.b.p.k > o   # - - - - - - - - - - r !.e.^ *.&.*.` 3.].].].",
"W >X1X7X>X7X=.W o.T.3XwX{.E &   o X X o X     # = y 2.1.5.p.c.I.K.K.K.J.v.p.:.%   # - - - - - - - - = - r `.e.^ *.*.*.*.&.I.].].",
"W l.{.rXU.>X=.W W l.3X<X=.E & o o o o o X X   o # y >.4.i.p.v.K.K.K.(.K.G.c.p.0   o - - - - - - - - - = r `.e.U ' { { { ' s.].].",
"W O.U.0Xf.0Xu.W O.f.7XrXZ.Y &   # # # # X X X   % s :.1.x.b.J.(.K.J.K.J.G.M.p.e   o - - - - - - - - = = r `.s.` ' ' { { ` d.].].",
"W o.,XT.T.uX9.W =.R.7X>X1XX.& o # # # # #   X o 8 s h z x :.n.(.).P._.).J.G.c.e   # - - - - - - - - - - t N.&.&.^ *.*.e./ d.].].",
"W f.B.0.>X>Xo.W W 0.0.W o.Y &   # # # # >   X o 8 s :.2.w.:.:.c.K.b.n.i.w.i.i.g   # - - - - - - - - - < c M.` ' ' ' ` ' ` I.].].",
"W +.t.l.l.T.O.W W ..W W W Y &   o # X # # X X # 0 :.,.k :.x.p.4.G.c.>.>.w.i.w.k   # - - - - - - - - 1 < t !.p.p.v.d.s.s.e.).].].",
"o.l.=.T.=.<Xl.W W ..W W W Y %         X # X   # s 1.:.x F x.i.,.F.v.1.x w.v.v.x   = - - - - - - - < , - t `.3.U ^ _ _ _ ` L.].].",
"=.R.9.,Xo.,XT.W W W W R R Y &       X X o X   # d 4.p.c.F.G.p.,.F.v.i.x q.a.F.h o - - - - - - - < r , - t `.F.s.s.s.s.s.s.(.].].",
";.<X,XR.o.7XU.W W o.0.0.0.Y &   X X o X # # # > s ,.v.J.K.J.4.,.F.J.G.F.J.G.J.h # - - - - - - - < , < - t `._.L.K.K.L.K.(.].].].",
"W >X0Xt.U.<X;.W B.<XU.%.R.l.&   X   X o # > : 8 q ,.p.(._.b.[ ,.F.J.(.(.K.J.J.h # - - - - - - - 1 < < - t }.L.^ U U ^ _ e.[.[.].",
"W o.B.Z.U.l.9.W t.U.o.Q E.1X&   o X   o o # : > w k 4.K.).>.:.p.P.J.(._.).J.F.e - - - - x z - < 1 < , - t }.`.d.d.d.d.d.M.[. X[.",
"o.l.7X3X<XwXR.R R R R W <X>X&   o X # # # o # : f k 1.J.c.k d :.c.p.b.(.K.G.x., - - - : w.i.< - - 1 A - t }.`.`.`.`.`.`.`.}.|.[.",
"+.7XwX0XwXrXT.R W W =.E.<X8.@ . o b H H t : o # f f ,.v.d.a.a.i.c.c.v.b.J.c.q.- - - - : w.c.0 = A &XK - t S.' ` _ _ _ ( _ j.|. X",
"o.7X<X0XrXrXT.R W o.9.9.o.Y N V v oX.XXXH 1 o X d d >.1.p.p.c.J.J.J.F.c.G.c.y * - - - : >.b.y G ;XK < - t ^.e.@.{ 8.8.8.&.M.2X|.",
"o.3X0X7X7XrXT.R W W R R W E J H oXXXXXXXXXH #   e s :.:.x >.a.v.F.F.F.v.M.w.: * = - - > ,.G.^.-XA = - - t ,X}.8.8.Y.e.e.8.Y.2X|.",
"+.<X3XrX3X0XR.R W W W W W E >.w.F H .XXXXX+Xn   8 w >.:.d | ,.a.4.4.i.b.c.y # * = - - > a.J.}.q.= - - - t %X8.U U $.` _ U m.2X2X",
"+.j.T.1Xg.3XU.R W R W W W E *.O.O.' 6.J J OXH 0 # w :.:.s f 4.v.v.v.p.c.D.N # * = = - 0 i.J.J.i.< - - - m %X$.` ` ] ` 8.` Y.4X2X",
"W l.U.{.g.1Xg.R W 9.+.o.W W o.o.o.o.o.O.O.$.F :.: q h 1.k [ ,.4.a.c.a.w.S v 2 * - - = d c.K.P.J.x - - - m %X$.` ` ] ` ' ' ,X4X2X",
"R >X3X0XE.0Xl.R W >XR.Z.T.E X.X.o.o.o.o.O.o.} 1.g : 9 :.4.a.v.F.v.c.1.y x w.x u : * > :.b.P.(.J.c.0 - - m %X$./ ` ] ' ] ` {.9X4X",
"W >X0X0XU.3XU.W W ,XT.9.7X+./ ` X.o.o.o.o.o.*.G F 0 o 0 :.1.p.v.c.w.x 8 x ,.,.,.k h x i.c.G.(.J.J.x - - C %X$.8.$.e.] j.] l.0X4X",
"R R.<X<X1X1XR.W W <XE.%.0X0.U ^ / X.o.o.o.o.O.J oXS % o % 0 s x x s w : # > 9 w :.p.p.i.i.b.K.K.G.p.0 - m =X$.$.` 8.` 8.` h.0X0X",
"W ,X0X3XuXyX<XW R R.R.t.0X+.P I U / /  .o.o.@.J V H N q q s k :.0 8 q #     # - w ,.4.a.p.v.P.K.G.b.g * m ^.` U ` U U ' _ S.4X0X",
"o.,XT.R.1XwX>XR W o.0.,XT.E 6 6 I / / / Y X.@.OXH 2 H F [ :.4.>.> # : o X X # b : 9 f 5.v.G.J.J.J.G.g * M *XS.>X>XA.e.A.>X4X0X0X",
"W o.o.9.+.T.9.R W ..g.g...Y p p p U / Y ^ B B oXXXV 2 D :.f x S 1 o o X X X o : 1 b u } 4.v.J.J.J.G.F b C *X3X0X0X3X5X5X&X*X0X0X",
"+.l.l.B.B.B.Z.Z.Z.Z.Z.Z.B.X.6 6 i I E E ^ J H oXXX.Xv v q.:.y oXv # X       X 8 N .Xb s ,.p.K.P.J.F.L oXZ #X^.*X%X=X^.V.+XH 5X9X",
"O.=.9.g.g.j.g.t.t.g.g.%.%.` P P 9 7 E W Y l j J OXoX.XV D x > 2 1 > X       o 8 u 2 - > f c.(.).J.J.F 2 m 6XrXuXrXwXwX0X@XC.3X9X",
"..W 0.l.E.U.l.m.m.Z.Z.o.W E U P 8 q ! E E Y U ! ) ) F J J x O   9 8 o       X & : # * : f v.P.P.J.J.z # m qXdX*X-XyX%X%X^.3XeX0X",
"o.W W =.9.9.%.=.9.9.+.W W E U I 3 8 q P Y E ..^ U I ~ X.7.k O # e 8 #       X 8 : # * > ,.F.J.J.J.I.e # m qXrXD D rXK G G 5XuXeX",
"o.W W j.U.m.g.j.l.m.g.W W  .U U 5 9 8 q P Y o./ Y Y  .E  .~ O : d 9 #   X   O q = = = q 5.J.J.J.J.F.u # m qXrXG V.dX$XD C.6XyXuX",
"o.W W W W W =.%.W W W W W E U U P i 9 > q P E ^  .o.o.o. ./ & > s q #   X X 3 i # # # f p.J.J.J.J.i.= o C iXqXG K rX;XC.G 6XdXyX",
"o.W W W W W t.0.R W W W .. .U U U a q & > q I X.o.o.o.o.o.o.5 e s q o     O 9 p % * > ,.v.J.J.J.J.g # o C iX&X$X*X;X6X%XV.rXdXyX",
"o.W W W +.t.f.9.j.=.W W .. .U U Y U p q > # 3 ~ o.o.o.o.o.o.^ h s q o X X % 3 ! > # w p.J.J.J.J.x.> # o Z iXpXjX&X/.8X*X$X6XhXgX",
"o.W W W %.j.j.r.l.9.W W .. .U U U U I p q # # p o.o.o.o.o...@.x s 9 X   O % 4 P 9 # | v.J.J.J.J.:.# # o Z iXfX8X#X:XC.$X#X;XhXdX",
"o.W W W =.m.g.g.g.o.W W ../ 6 U U U U U i O 3 !  .o.o.o.o. .( s ~ q     # % i I w > [ v.J.J.J.b.y o o   C aX8X/.#XsX#X&X#XrXgXgX",
"o.W W W O.g.t.9.9.o.W W ../ 4 P U U U U 5 X 3 Y E W o.o.W ..! ! o.~ o X o 3 p U 4 e z w.b.J.J.x.> o o   C aX;X#XV.8XV.D D ;XhXgX",
"o.W W j.U.U.j.j.j.Z.t.R ..^ 3 i U U U I 3   4 Y E o.o...E ^ U o.o.) e o % q 6 5 8 y F x <.c.F.w.# o o   C aXaX&XV.8XS C t -XhXjX",
"o.W W 9.t.t.9.9.9.t.+.R  .^ % 9 P U U I 3   4 Y ..o...Y ~ U Y o./ k x : 9 w p w w z z x <.2.5.x # o o   C iXkXtXrXaXD Z A ;XlXhX",
"o.W W W R O.l.m.o.R W E  .^ @ # i U U P 3   3 U / E U U E Y Y o.o.| h e 3 0 g y z z x <.<.2.1.g   X X   C iXkXhXkXpX#XC.C.:XlXhX",
"o.W W W O.+.9.%.o.o.W E  .^ @   & 6 U U 4 X X 7 P I Y E E Y U X.o.~ x s O # g e z x x x <.2.1.e   X     Z iXhXhXkXsXK K K qXkXjX",
"o.W W +.U.E.m.m.l.Z.o.E  .^ +   o 9 P U i %   O 5 U E E E Y U  . .f h x > # 0 x e k | :.<.2.:.:   X     Z tXhXkXkXsXG D K :XkXgX",
"..W W W %.r.r.0.%.O.E Y  .^ +     # q I I q O   O 5 Y E Y Y E Y ^ s y <.y e e h x d Y ( ,.1.h o X       Z aXkXhXkXaXD D t -XkXdX",
" .W W W g.R.R.l.l.+.E Y  .~ +       % i U 6 i %   # a Y Y E Y U ! e g x g y x q x f E E ( ,.0 o X       A rXkXhXhXfX8X;XV.qXkXdX",
"X.E E E O.0.0.%.0.X.Y Y ` ~ +   X   X 3 6 I U p & o q I Y Y U I d 0 s x z e :.x k ^ ..W E [ = # o       A rXhXhXkXkXkXkXhXhXhXyX",
"` E Y E %.l.j.g.m.@.Y U ` ~ +   X X   O q p U U i 3 8 i U U U 5 h > g x x s h :.! U ..W E ^ # # o   X   A rXkXkXkXhXkXhXkXhXjXyX",
"X.X.X.X.o.O.X.o.@.X.X./ ` ~ %           X 3 6 U U ! i p U U ! & k 0 x x :.k g { a I ......p # # # - = # A qXjXjXfXjXhXfXdXdXyXdX",
"E E E E E E E E E E Y Y Y I m M t t t r r t g 6.7.7.7.7.7.7.6.y F F z.F z.z.q.9.} } 9.0.8.g 1 r Z K K D K &X;X;X&X:X8X&X$X;XfXdX",
"U U U U Y Y U Y U U U U U ] 0XpXpXpXpXpXpXpXpXpXdXdXdXdXdXdXdXpXpXpXdXpXdXdXdXyXrXrXyXyXyXrXrXrXrXsXfXpXpXfXfXfXfXfXfXsXsXjXhXdX",
"U U ` ' e.&.` ` Y / Y U U ] wXkXkXkXkXkXkXkXkXkXkXkXkXkXkXkXkXkXkXkXkXkXkXkXkXkXkXkXkXkXkXkXkXkXkXkXkXkXkXkXkXkXkXkXkXkXkXkXhXdX"
};
