/* XPM */
static char *wall04[] = {
/* columns rows colors chars-per-pixel */
"64 64 166 2 ",
"   c #263D1B",
".  c #2B3E1C",
"X  c #2A3E20",
"o  c #264419",
"O  c #2D441D",
"+  c #2D441C",
"@  c #2E441C",
"#  c #2F441C",
"$  c #2E451C",
"%  c #2F451C",
"&  c #2E441D",
"*  c #2F441D",
"=  c #2E451D",
"-  c #2F451D",
";  c #2C461C",
":  c #2E461C",
">  c #2F461C",
",  c #2E471C",
"<  c #2F471C",
"1  c #2E461D",
"2  c #2F461D",
"3  c #2F471D",
"4  c #2D441E",
"5  c #2E441E",
"6  c #2F441E",
"7  c #2F451E",
"8  c #2E441F",
"9  c #2F441F",
"0  c #2F451F",
"q  c #2F461E",
"w  c #2E471E",
"e  c #2F471E",
"r  c #2F461F",
"t  c #2D431D",
"y  c #274919",
"u  c #2F481B",
"i  c #2F491B",
"p  c #2F4A1B",
"a  c #2F481C",
"s  c #2F491E",
"d  c #2E4A1E",
"f  c #2D4A1B",
"g  c #30431E",
"h  c #30431F",
"j  c #30461D",
"k  c #30471D",
"l  c #30441E",
"z  c #30451E",
"x  c #30441F",
"c  c #30451F",
"v  c #31451F",
"b  c #30461E",
"n  c #30471E",
"m  c #31471E",
"M  c #30461F",
"N  c #31461F",
"B  c #30471F",
"V  c #31471F",
"C  c #32471F",
"Z  c #30461E",
"A  c #314F1B",
"S  c #304B1C",
"D  c #31481E",
"F  c #31491E",
"G  c #30491F",
"H  c #32481E",
"J  c #324A1E",
"K  c #314A1E",
"L  c #2E501B",
"P  c #33511B",
"I  c #35561A",
"U  c #34521C",
"Y  c #2D4020",
"T  c #2D4120",
"R  c #2E4120",
"E  c #2E4121",
"W  c #2D4320",
"Q  c #2E4220",
"!  c #2F4320",
"~  c #2E4221",
"^  c #2F4221",
"/  c #2F4321",
"(  c #2F4222",
")  c #2F4420",
"_  c #2F4422",
"`  c #2E4320",
"'  c #2D4920",
"]  c #304320",
"[  c #304321",
"{  c #304322",
"}  c #304323",
"|  c #304420",
" . c #304520",
".. c #314520",
"X. c #304421",
"o. c #314421",
"O. c #304521",
"+. c #314521",
"@. c #324521",
"#. c #304620",
"$. c #314620",
"%. c #314720",
"&. c #314621",
"*. c #314721",
"=. c #324620",
"-. c #324720",
";. c #324621",
":. c #324721",
">. c #334721",
",. c #304422",
"<. c #314422",
"1. c #314522",
"2. c #314423",
"3. c #314523",
"4. c #324522",
"5. c #324523",
"6. c #314622",
"7. c #324622",
"8. c #324722",
"9. c #334722",
"0. c #324623",
"q. c #334623",
"w. c #324723",
"e. c #334723",
"r. c #344720",
"t. c #344723",
"y. c #334624",
"u. c #334724",
"i. c #344724",
"p. c #324621",
"a. c #304821",
"s. c #324820",
"d. c #334820",
"f. c #324920",
"g. c #324821",
"h. c #334821",
"j. c #304B20",
"k. c #314A21",
"l. c #334822",
"z. c #334823",
"x. c #344A20",
"c. c #344822",
"v. c #344823",
"b. c #354823",
"n. c #344923",
"m. c #364A23",
"M. c #324C21",
"N. c #334E23",
"B. c #334824",
"V. c #344824",
"C. c #354824",
"Z. c #354924",
"A. c #344825",
"S. c #354825",
"D. c #354925",
"F. c #364924",
"G. c #364925",
"H. c #364A24",
"J. c #374A25",
"K. c #374926",
"L. c #344923",
"P. c #384A24",
"I. c #394C26",
"U. c #335322",
"Y. c #395729",
"T. c #3A5C2C",
/* pixels */
"1.1.1.1.S.S.S.1.O O O X . O 1.z O 1.z O O O O O O O O z O O O z S.1.1.1.S.1.O O O O O . O O z z O O S z O O O ^ S.S.z O O O 1.1.",
"O O . O 1.^ ^ 1.1.1.. . . O S.z 1.1.O O . O O O O 1.O O O z O z 1.O O 1.1.1.O O z O   O O O 1.1.O O z O O O O O O z O O O O 1.1.",
"1.1.1.1.O 1.1.1.S.S.O   O O 1.z S.S.O O O O z z 1.1.1.z z O z O . z S.1.O 1.1.1.1.O O u U u O ^ O O O O O O O O . O z O O . . z ",
"S.1.1.1.1.S.1.1.1.1.O O O 1.1.1.S.S z S.1.1.S.1.O O 1.S.S.O . . O S.S.S.1.1.z O ^ 1.S.u U S S O O O 1.O O z O z z O O O . O O 1.",
"S.1.^ O S.S.1.^ 1.1.O O z S.S.S.S.z O z O 1.S O 1.1.S z z O O . ^ S.S.S.1.O O 1.^ 1.1.O u O S.S S 1.^ O O O . O 1.. O O O S.1.^ ",
"1.^ 1.1.^ 1.1.O O 1.O . O S S.S.z O O O O 1.S.O 1.O O O O O O O O 1.S.S.1.O z S.1.O 1.O O O O z 1.z O O O . O 1.1.1.1.O 1.S.1.O ",
"1.^ 1.1.1.S.S.S.O O . . O z z 1.z z O z S.1.O O O O u O u O O O O O 1.1.O O O ^ 1.1.O O O O O O O O 1.z O O 1.1.S.S.1.z S.z O O ",
"S.1.^ 1.1.S.S.z . O 1.O O 1.S.S.S.S.1.1.S.1.1.O O O O O O o o o O O O 1.z O O S.S.S.S.^ 1.1.1.z S.1.1.1.O O O z S.1.1.O O O ^ S.",
"S.1.^ S.1.1.1.O . O O O O z S.S.S.S.1.1.S.S.1.O O O z O O o O o o o O 1.O O O 1.S.S.S.z O O O z 1.S.S.1.O O 1.1.1.1.1.1.O O 1.S.",
"1.^ O S.S.^ z O O O O O O O z 1.1.1.z O O 1.1.1.S.1.S.O O O z O o o O 1.1.1.O O z O z 1.z O O O O 1.S.S.1.1.1.z 1.S.S.S.O O 1.1.",
"1.1.1.1.1.^ O O O . O O O 1.z O O O O O z O z S.1.1.O z z z z O O o O 1.S.1.z S.1.O z 1.1.O O 1.^ O 1.1.1.S.S.S.1.1.1.1.1.1.1.1.",
"S.S.1.^ O O 1.z O O O S.^ S.O O O O O O P.z O z 1.S.O O O S u O O o o O O O O S.S.O O 1.O O 1.1.^ . O O 1.1.S.1.O 1.1.z 1.S.S.1.",
"S.S.1.O 1.1.S.S.O O u S.S.z O O O O S z 1.O O . O O O O O u O O O O O o O O O O O O z 1.O z S.S.1.O 1.O 1.1.z O z S.O 1.1.1.S.S.",
"S.S.^ O z 1.O O z z O O S.S u S.O z S S z O O . O O O O z z 1.O O O O O o O O O . O z z 1.S.S.S.S.O 1.O 1.O O O z z 1.^ 1.S.1.S.",
"S.1.O O O O O O z S O O U S S S O O O O O O O O O O O O O O ^ ^ O O O z O O O O O O O z 1.S.S.S.S.O S.^ 1.z z O O O O O 1.S.1.S.",
"1.z z O . ^ O O u S u O u u O O z z O z O O O O O . O O . O S.S.O O O O O O O O O O z S z z S.S.1.O 1.O O O O O O O O O O O O z ",
"O O O O O O O O u u O O O o o O O 1.O O O O O O O O S.S O . z S.1.O O O O . . z O z 1.1.1.1.S.1.1.z O O O O O O O O O O O O O O ",
"O O O O O O O u O O O O 1.O o O S O O O O O 1.S.z S S z . . O S.1.. O O O O z S.S.S.S.1.1.O O 1.S.1.O O O O O O O O O O O z O z ",
"O O O O O O z S O u u O 1.O y o u o u O z O S.P.1.O O O . z z z O O O 1.z O z S.S.S.S.z O O z S.1.z O O O O O O O z O O z z z 1.",
"S.z O O O O O z u u u O O O o o o O S z . O S P.S.S O O O 1.1.O O z z S.O O O 1.S.S.1.O O S.1.O O z O O O O O O O 1.O O z 1.P.z ",
"^ O O O ^ O O z ^ o O O 1.z O . O S.1.z . . 1.1.O O O O O O O . 1.z O 1.O 1.1.1.1.1.O O O O 1.O O O 1.O O O O 1.z S.S.P.P.S.P.S ",
"O O O O ^ z O z O O 1.O O . O O O S.1.O . . . z O O O O z O . O O . O 1.O 1.1.S.S.1.z O O 1.1.1.1.O 1.1.O O z S.z 1.S.S.1.O z z ",
"z O O O O O O O O S.S.S.O . . O . O z O O O O O O O O O S.O O O O O 1.S.S.1.1.1.S.1.z O O 1.S.S.S.O O O O O O S.1.O O 1.z O O 1.",
"1.O O O O O O O ^ S.S.S.O . . O O . O z z S z O 1.O O 1.1.z S.S.1.1.S.S S ^ O z 1.1.1.O O O O O O 1.1.O O O z 1.O O O O O O 1.S.",
"S.O O z 1.O O O 1.S.1.O O O O O O O O z z z O O O O O ^ O 1.S.S.S.S.z O u O O O O 1.S.1.O 1.O O 1.S.S.1.O O S.1.O O O z 1.S.P.S.",
"S.O . O . O 1.O O 1.O 1.1.z O O O O O z z z . O O O O O O S.S.1.u U U u u O O O O O 1.1.1.S.S.O 1.S.S.z O O 1.1.O z 1.1.1.P.S.S.",
"^ O 1.1.^ O 1.O z 1.1.1.1.1.O O O z z O z O O O O 1.O ^ 1.S.S.S.u u u O O O O O 1.z 1.1.1.O O O O O ^ O O z z z S z O O 1.S.S.1.",
"1.S.S.1.S.^ O z O O O O O O ^ 1.O O O O O O z O . O . . z S.1.S u O O O O O O 1.S.S.1.S.z O O O O O . 1.S.S z O O O O z 1.1.^ ^ ",
"z 1.O O z z O O O O 1.1.1.O ^ ^ O O O O O O O O O O . O z 1.S.U u O O O O ^ 1.1.1.1.1.1.O O o O O . O S.z O O O O O O O O   O O ",
"1.S.S.z 1.O O O O z S O O O O O O O O O O z O O z O O S.S.z S L O O z O 1.1.1.S.1.1.1.O O O O u O . O S.S O O O O O O O O O S S.",
"z S.z ^ O O ^ z O z S.S O O O O S u O O O O O S.S.O O 1.1.z u u O O 1.1.^ 1.1.1.S.S.1.O O O S O O O z O O ^ 1.S.z O 1.z O S S.S.",
"Y.S.O O O . O O O 1.S.S.O O O O u O u u O O O S.S.O O O O O O O O O 1.S.1.^ 1.^ 1.z O O O O O O O ^ ^ O 1.O 1.1.S.S.O O O O O O ",
"T.u       O O O O 1.1.z O O O o o O u y O O O O O z z O O O O u O O O O O O O O 1.^ O O O O 1.1.1.U.O   z 1.1.1.S.z O O u u u O ",
"u u O O O O O O z 1.1.O O O O u I u o o O O O O O O O z O O O O O O z O O z O . O ^ 1.^ O O O 1.S.U.    O u O O S z O O u u u u ",
"o u u o O O O O 1.z O . O O O O u u O o O O O z O O O O 1.O O 1.O O O ^ O O z z O O O 1.S.^ ' S.S.^ ^ O O u O z z O O O O u u ^ ",
"O ^ ^ o O S.O 1.S.z S.z O z S.O O O O O O O O O O 1.O O 1.O z 1.O O O O O S S S S.O z z S.^   ' O O O O O O O O 1.1.S.O O O O O ",
"z O O O 1.S.z 1.z 1.S.u O z S.z O O o O O O O O O 1.z O O O S.1.1.S.^ O S z O S u O O O O . . O y y O u O 1.z O O z z z z z O O ",
"O O S.1.O z S.S.S.1.S.u u O O O O O O O O O z O O O 1.1.O O z 1.1.1.1.z z O O O O O O O 1.1.O u o u o o O z z O O S.z O S.S.S.z ",
"1.^ S.S.1.1.S.1.1.1.S u u o O O O O O O O . O O O 1.1.S.z 1.S.z O ^ 1.1.O O O O O O u u O u u o o o o o O O O O O z S.z S.P.S.S.",
"1.1.S.S.1.O 1.^ 1.1.S.S.u O O O O O O O 1.1.S.O O z z z 1.S.S.O 1.O 1.1.O O O O O O O u u O O u O y o o o O O O z z 1.1.S.S.S.S.",
"S.S.S.S.S.1.O S.1.1.z O u O O O O O . O 1.1.1.O O O O O O S.S.z 1.O O O O O O O O u O o u o o o y y o O o O O O z S.1.O 1.z 1.S.",
"S.O 1.1.1.O O O 1.O O O O O O O O O O O 1.O ^ O O O O z 1.1.z O O O O S O O O O o u u O O S.O o o O O u O O O O O z O z 1.1.1.1.",
"1.O 1.1.1.1.O 1.1.1.1.1.1.S.O 1.1.O O O O O 1.1.1.z 1.1.S.1.O O O z O O z O O O O o o o O 1.S.o o O O o O u O O S.S.z O z 1.1.1.",
"1.1.S.1.S.S.O 1.S.S.S.1.O 1.O 1.^ 1.O O O 1.O 1.z z 1.1.S.S.1.O z 1.S.S O O O O O o u u O O O o o O u u u u O O S.S.S.S.1.1.1.1.",
"1.1.z O 1.O O 1.1.1.S.1.O 1.1.O ^ O . . . S.z O O O O S.S.1.1.1.S.S.1.S.S.1.O O O O O O O O O O O O O O O O O O S.1.1.S.S.1.1.S.",
"S.S.1.O 1.z O 1.1.O O O O 1.1.^ 1.O O O O S.S u O O O 1.1.1.S.S.1.z z S.1.O O O O O O O O O O O O O O O O O z z z ^ S.S.S.S.S.1.",
"1.1.1.O O O O O O 1.O O 1.1.1.1.1.O 1.z S.z O o O O O 1.1.^ z O z S 1.1.z z O z O O O O O O O S.z O O O O S z O 1.1.S.S.S.1.S.S.",
"1.1.1.X ^ 1.O ^ O 1.O O S.1.S.S.S.S.S.S.S.O O O O O 1.S.1.z S O z S.^ 1.1.O O 1.O O O O O O O z O O 1.1.S.S.O O S.S.S.S.1.S.S.1.",
"1.S.S.^ ^ ^ O O . O 1.O 1.1.1.S.S.S.S.S.S.L L u O O z O O O O O O z z O O O O O O O z z O . . O O 1.z z S.1.O O 1.1.S.1.S.1.S.S.",
"1.1.1.1.O O O z . O O O 1.S.S.S.S.S.S.u O u u u O O O O O O O O O O 1.1.. O O O O O O O O O 1.O O 1.z z z O O . 1.1.z 1.1.^ 1.S.",
"1.^ O ^ O O 1.S.1.O 1.O S.1.S.S.S.O u u O u S O O O O O O O O O O O O O . O O O O O z O z O z O O O z 1.O O O O O O z S.1.O ^ 1.",
"1.1.O O O 1.S.S.S.1.1.O 1.1.S.S.1.O O O O S.z O z O O O . O O O O . O O z O O O 1.1.1.1.1.O O O O O O O . O O O O O z S.1.1.1.1.",
"1.1.O . 1.S.S.S.1.. O 1.^ 1.S.1.O O O O 1.1.O O O O O O O z O O z z O O O O O O O 1.1.1.1.O O O O O O O O O O O O O O O O S.1.1.",
"1.1.O 1.1.1.S.1.O O O S.1.O 1.1.O O O O S.S.O z O z z O O O . O z O 1.z O z O O 1.O z 1.1.z O O O O O O O O O O O O O O O z O 1.",
"S.S.1.S.1.1.1.^ z O O 1.1.O ^ O O O O O O z O O O O O O O O O O z O 1.z z 1.z 1.S.O 1.1.1.O z O O O o u u O   O O O O O O O O 1.",
"S.S.1.S.1.S.S.1.1.O O S.S.1.S.O O 1.1.1.O O O O O O O O z O O z z O O O O 1.S.1.1.O S.S.z 1.1.z O O O O u O O O O O O O z O O S ",
"1.1.1.S.1.S.S.1.z O O 1.S.P.S.z O O O O O O O O O . O O O O O O O z 1.1.O z S.O . 1.S.S.O O z 1.O z O O O U U O O O O O 1.z 1.S.",
"1.O 1.1.1.S.1.z S.1.O O O O z z ^ O O O O O O O O O . O . . . O O 1.1.1.O O O . O 1.1.1.O O O O z ^ z O O u S S.1.O O z 1.S.S.1.",
"^ 1.S.S.1.1.^ 1.S.S.1.S.1.. z S.S.1.1.1.O O O O O O O . . . . O O O 1.1.1.O . . O O O z O O O z S.O z O O 1.S.S.S.O O z ^ O 1.1.",
"1.1.1.1.^ 1.1.1.1.1.S.S.S.O 1.S.S.1.^ z O O O O O z z O O O O O O O 1.O O . . O O ^ ^ O z S.1.1.O O u S S S.1.S.S.O O O 1.S.S.S.",
"1.1.1.1.^ 1.1.1.O O 1.S.S.1.1.1.O O . O O O O O O O O z z O 1.z O O O O O . . . . . . z z 1.1.z O O S S.S.S.1.S.S.O O . ^ S.S.S.",
"S.1.1.1.1.1.S.S.O 1.S.S.S.1.. O O O . . O O O O O O O z O O z 1.1.z O O O O O O O . . 1.O 1.1.O O O O S S.z 1.S.z O O O O 1.S.S.",
"S.1.^ 1.1.S.S.S.1.1.1.S.S.1.O O O O O z S.O O O O O O O O O O S.1.z O O O O O O 1.1.1.O O 1.S.O O O O S S.O O O O o O O O O 1.S.",
"1.^ O 1.1.1.S.S.1.1.1.1.1.O O O O z S.S.S.O O O O O 1.1.1.O O 1.1.O O O . . . O O z S O O 1.1.O O O O O 1.z z O O O O O O ^ 1.1."
};
