/* XPM */
static char *wall02_south[] = {
/* columns rows colors chars-per-pixel */
"64 64 198 2 ",
"   c #0F0C07",
".  c #100C07",
"X  c #110D08",
"o  c #15110B",
"O  c #1A150E",
"+  c #1E180F",
"@  c #1E1911",
"#  c #1A1610",
"$  c #231D14",
"%  c #2A2217",
"&  c #2B251B",
"*  c #29231A",
"=  c #31271A",
"-  c #342A1D",
";  c #382A1D",
":  c #2E2921",
">  c #332C21",
",  c #3A2F22",
"<  c #3C3225",
"1  c #3B3429",
"2  c #363128",
"3  c #423425",
"4  c #40372A",
"5  c #433B2D",
"6  c #4B3C2C",
"7  c #473E31",
"8  c #4C4334",
"9  c #4D4639",
"0  c #4A443A",
"q  c #544635",
"w  c #5B4531",
"e  c #504738",
"r  c #544B3C",
"t  c #594D3C",
"y  c #5B503F",
"u  c #59402D",
"i  c #664D37",
"p  c #6B543E",
"a  c #78563D",
"s  c #4E4A41",
"d  c #534E42",
"f  c #584F40",
"g  c #5C5344",
"h  c #5B564A",
"j  c #5A554B",
"k  c #5E5A51",
"l  c #625645",
"z  c #645C4C",
"x  c #685E4E",
"c  c #7B5A42",
"v  c #725942",
"b  c #625D54",
"n  c #7C634B",
"m  c #6B6455",
"M  c #6B6559",
"N  c #6E695B",
"B  c #676152",
"V  c #726B5C",
"C  c #7A6955",
"Z  c #756F60",
"A  c #7A7465",
"S  c #7E796B",
"D  c #787366",
"F  c #815E44",
"G  c #88644A",
"H  c #966B4E",
"J  c #8A6A51",
"K  c #996E51",
"L  c #8C7157",
"P  c #9B7659",
"I  c #9E795A",
"U  c #987254",
"Y  c #A57C5C",
"T  c #A67858",
"R  c #B07F5D",
"E  c #817C6D",
"W  c #967C64",
"Q  c #837F70",
"!  c #A47F61",
"~  c #AA7B61",
"^  c #9B836A",
"/  c #868273",
"(  c #898576",
")  c #8A8779",
"_  c #8E8A7C",
"`  c #908D7E",
"'  c #9D8B76",
"]  c #A48263",
"[  c #AD8464",
"{  c #A9886A",
"}  c #B38866",
"|  c #B48D6C",
" . c #BA8E6A",
".. c #B78864",
"X. c #B5906E",
"o. c #BC936E",
"O. c #AC8E71",
"+. c #BC9571",
"@. c #BC9A7A",
"#. c #B29477",
"$. c #A8927A",
"%. c #C2946D",
"&. c #C19671",
"*. c #C59973",
"=. c #CB9C74",
"-. c #C99F7A",
";. c #C39E7C",
":. c #CDA077",
">. c #CEA27B",
",. c #C6A07E",
"<. c #D1A57D",
"1. c #918E81",
"2. c #959284",
"3. c #979588",
"4. c #999689",
"5. c #9C9A8D",
"6. c #989587",
"7. c #9E9E91",
"8. c #A09E91",
"9. c #AF9694",
"0. c #9FA094",
"q. c #A2A295",
"w. c #A5A69A",
"e. c #A7A89C",
"r. c #A9AA9E",
"t. c #A9A79A",
"y. c #B7AB99",
"u. c #ACADA1",
"i. c #B0AEA1",
"p. c #AFB0A5",
"a. c #B2B2A6",
"s. c #B4B4A9",
"d. c #B9B6AB",
"f. c #BAB9AE",
"g. c #BDB4A3",
"h. c #BEBDB5",
"j. c #C29E80",
"k. c #C4A484",
"l. c #CEA682",
"z. c #CDA885",
"x. c #CEAA89",
"c. c #D2A781",
"v. c #D4AA84",
"b. c #D6AE89",
"n. c #D7B08C",
"m. c #D8B18C",
"M. c #C5AD91",
"N. c #CEB192",
"B. c #D4B494",
"V. c #DAB592",
"C. c #DCB996",
"Z. c #D6B99A",
"A. c #DDBC9A",
"S. c #C39BA3",
"D. c #C8B9B5",
"F. c #D2BDBB",
"G. c #C7A4A8",
"H. c #E0C09E",
"J. c #DDC2A3",
"K. c #D6C0AA",
"L. c #C5C4BA",
"P. c #C9C8BE",
"I. c #C8C3B6",
"U. c #D9C7B7",
"Y. c #DFD1BF",
"T. c #E2C4A4",
"R. c #E5CCAD",
"E. c #E1C6A8",
"W. c #E5CEB2",
"Q. c #E4D1B6",
"!. c #E3D3BB",
"~. c #CDCDC3",
"^. c #D8CAC4",
"/. c #D2D1C7",
"(. c #D5D5CB",
"). c #DCD3CB",
"_. c #DDDACF",
"`. c #DCDCD3",
"'. c #E2D6C2",
"]. c #E1D8C6",
"[. c #E1DBCB",
"{. c #E1DED2",
"}. c #DFE0D9",
"|. c #E2E1D6",
" X c #E5E6DE",
".X c #E4E5DC",
"XX c #E4E5DC",
"oX c #E7E8DF",
"OX c #E6E7E0",
"+X c #E6E7E0",
"@X c #E6E8E0",
"#X c #E6E8E1",
"$X c #E7E9E3",
"%X c #E7E8E2",
"&X c #E6E8E1",
"*X c #E8E9E4",
"=X c #E9EBE5",
"-X c #E8E9E4",
/* pixels */
"XXXXXXXXXXXXXXXXXXXXXXXXXXXXXXXXXXXXXXXXXXXXXXXXXXXXXXXXXXXXXXXXoXoXXXXXXXXXXXXXXXXXXXXXXXXXXXXXXXXXXXXXXXXXXXXXXX).).|._.^.^._.",
"XXXXXXXXXXXXXXXXXXXXXXXXXXXXXXXXXXXXXXXXXXXXXXXXXXXXXXXXXXXX`.P.f.d.D.~.`.XXXXXXXXXXXXXXXXXXXXXXXXXXXXXXXXXXXXXXXXF.S.U.D.D.G.).",
"XXXXXXXXXXXXXXXXXXXXXXXXXXXXXXXXXXOXOXOXOXOXXXXXXXXXXXXXXXd.E 9 1 j k s h 4.~.XXXXXXXXXXXXXXXXXXXXXXXXXXXXXXXXXXXXF.S.9.S.F.G.).",
"XXXXXXXXXXXXXX#XXXXXXXXXOX#X#X#X#X#X#X#X#XOXXXXXXX|.XXXXs.m 5 > d h b 9 & & 0 3.`.XXXXXXXXXXXXXXXXXXXXXXXXXXXXXXXX`.^.F.^.F.F.).",
"XXXXXXXXXX#X#X#XXXOX#X#X#X#X#X#X#X#X#X#XXXXX|./.8.` 4.t.V 5 > < > O . X * : O & N L.XXXXXXXXXXXXXXXXXXXXXXXXXXXXXXXXXXXXXXXX|.|.",
"XXXXXXXX#X#X#X*X#X#X#X#X#X#X#X#X#X#X#XXX(.d.8.m & @ @ > & @ % O @ % O o X o X o @ 9 I.XXXXXXXXXXXXXXXXXXXXXXXXXXXXXXXXXXXXXX|.|.",
"XXXXXX#X#X*X*X*X*X#X#X#X#X#X#X#X#X#X|.u.k 1 e 8 @ . X X X o $ > & & O # X X X X X X s L.XXXXXXXXXXXXXXXXXXXXXXXXXXXXXXXXXXXXXXXX",
"XX#X#X#X#X*X*X*X*X#X#X*X*X*X*X*X#XXX5.> O = < 1 > o X X X X X $ & $ X X X X X X X X O h /.XXXXXXXXXXXXXXXXXXXXXXXXXXXXXXXXXXXXXX",
"#X#X#X#X*X*X*X*X*X*X*X*X#X#X*X*X*Xf.2 X % & O X o X X X X X X X O o X X X X X X X . $ 8 S `.XXXXXXXXXXXXXXXXXXXXXXXXXXXXXXXXXXXX",
"#X#X*X*X*X*X*X*X*X*X*X*X#X#X*X*XXXM O < 5 % o X X X X X X o X X X X X X X X X X X X o d x D.XXXXXXXXXXXXXXXXXXXXXXXXXXXXXXXXXXXX",
"#X*X*X*X*X*X*X*X*X*X*X*X*X#X*X*Xh.& % < $ o X . X . X o % = O     . X X X X X X X X   $ g s.XXXXXXXXXXXXXXXXXXXXXXXXXXXXXXXXXXXX",
"*X*X*X*X*X*X*X*X*X*X*X*X#X#X#X`.k X O $ $ o X X $ 3 l n n p w 3 $ o X X X X o o X X X X 1 i.XXXXOXXXXXXXXXXXXXXXXXXXXXXXXXXXXXXX",
"*X*X*X*X*X*X*X*X*X*X*X*X#X#X*X7.# X o & @ X % i { M.U.W.Z.,.*. .K i = o X X X X X X X . o E XXXXXX#X#XXXXXXXXXXXXXXXXXXXXXXXXXXX",
"*X*X*X*X*X*X*X*X*X*X*X*X*X*X}.d   X O o O 6 P Z.!.[.].[.W.T.C.m.c.o.H 3 o X X X X X X X . 9 L.XXXXOX#XOXXXXXXXXXXXXXXXXXXXXXXXXX",
"*X*X*X*X*X*X*X*X*X*X*X*X*X*XL.> X X X X w } Z.!.[.{.[.].W.R.T.C.m.c.%.H 3 X X X X X X X . & 4.|.XX#X#X#XXXXXXXXXXXXXXXXXXXXXXXXX",
"*X*X*X*X*X*X*X*X*X*X*X*X*X*XP.1   X X , } Z.W.].{.|.[.!.R.R.T.Z.m.b.=...G = X X X X X X X X 9 f.XXOX#X#X#XXXXXXXXXXXXXXXXXXXXXXX",
"*X*X*X*X*X*X*X*X*X*X*X*X#X*X~.:   X $ U m.R.W.!.].[.!.R.R.R.Z.V.m.m.<.=.Y a % X X X X X X X $ ( XX#X#X#X#X#XXXXXXXXXXXXXXXXXXXXX",
"*X*X*X*X*X*X*X*X*X*X*X*X#X*XL.: X o q -.T.W.'.'.!.'.Q.R.R.R.Z.V.m.b.<.:.%.T i O . X X X X O O / #X#X#X#X#X#XOXXXXXXXXXXXXXXXXXXX",
"*X*X*X*X*X*X*X*X*X*X#X#X#X*X`.g O $ L Z.R.Q.[._.{.{.[.!.R.R.T.H.V.n.b.c.:. .G =   X X X X X o M XX#X#X#X#X#X#XXXXXXXXXXXXXXXXXXX",
"*X*X*X*X*X*X*X*X*X*X#X#X#X#X*X8.& & @.R.R.!.{.{.|.{.[.!.W.R.R.R.Z.V.m.b.<.*.[ i $   X X X o @ m XX#X#X#X#X#X#XOXXXXXXXXXXXXXXXXX",
"*X*X*X*X*X*X*X*X*X*X*X*X*X*X*Xh.= < B.Z.B.J.'.[.[.].!.W.R.W.R.R.T.C.m.l.=.=.*.Y w O . . X O & Q OX#XOXOX#X#X#X#XOXXXXXXXXXXXXXXX",
"*X*X*X*X*X*X*X*X*X*X*X*X*X*X*X`.d r Z.@.O.W L ^ k.Z.T.R.R.R.T.B.k.#.O.I P [ *.=.Y 6 X X X O < d.*X#X#X#X#X#X#XOX#XXXXXXXXXXXXXXX",
"*X*X*X*X*X*X*X*X*X*X*X*X*X*X*X#Xg.^ J.n.b.;.Y G H +.n.C.C.m.*.J v p n L n c [ =.=.J O X X O 7 /.*X#X#X#X#X#X#X#X#XOXXXXXXXXXXXXX",
"*X*X*X*X*X*X*X*X*X*X*X*X*X*X*X*XU.N.R.Z.k.#.{ [ }  .>.b.c.=.*.| ! ] X.*.&.| o.=.=.I $   O O M XX*X#X#X#X#X#X#X#X#X#XXXXXXXXXXXXX",
"*X*X*X*X*X*X*X*X*X*X*X*X*X*X*X*XU.J.W.b.| ' 1 q Y %.c.C.c.=.&.] n 6 t P %.>.c.<.>.[ = ; 3 = D #X*X*X*X*X*X#X#X#XOXOXOXXXXXXXXXXX",
"*X*X*X*X*X*X*X*X*X*X*X*X*X*X*X*X[.W.R.R.R.J.{ ] | z.E.!.V.=. .K J , t W Y *.c.<.<.| v o.Y G y.#X*X*X*X*X*X#X#X#X#XOX#XOXXXXXXXXX",
"*X*X*X*X*X*X*X*X*X*X*X*X*X*X*X*X|.!.!.'.!.T.V.m.J.!.'.!.V.=.%.[ | ] X.*.*.=.=.=.<.+.Y m.-.j.XX*X*X*X*X*X*X*X#X#X#X#X#XOXXXXXXXXX",
"*X*X*X*X*X*X*X*X*X*X*X*X*X*X*X*XXX!.'.[.[.!.W.!.[.[.{.!.V.=.>.b.c.c.<.<.c.<.>.>.c.l.| -.>.K.*X*X*X*X*X*X*X*X#X#X#X#X#X#XXXXXXXXX",
"*X*X*X*X*X*X*X*X*X*X*X*X*X*X*X*XXX!.!.[.[.].'.[.[.[.|.!.m.>.c.Z.T.H.Z.V.m.b.c.<.c.b.*...>.[.*X*X*X*X*X*X*X*X#X#X#X#X#X#XOXXXXXXX",
"*X*X*X*X*X*X*X*X*X*X*X*X*X*X*X*XXX!.W.]._._.[.[.[.[.|.R.b.<.c.Z.R.R.R.T.C.m.b.c.b.b.=.R z.XX*X*X*X*X*X*X*X*X*X#X#X#X#X#X#XXXXXXX",
"*X*X*X*X*X*X*X*X*X*X*X*X*X*X#X*XOX'.R.!.[._.[.!.W.[.].R.b.=.c.Z.R.R.R.T.C.m.b.c.m.c...%.Z.#X*X*X*X*X*X*X*X*X*X*X#X#X#X#X#X#XXXXX",
"*X*X*X*X*X*X*X*X*X*X*X*X*X*X*X*X#X[.R.W.Q.!.W.R.W.'.Q.R.m.=.<.V.T.R.R.T.V.m.m.b.m.>.%.>.Y.*X*X*X*X*X*X*X*X*X*X*X#X#X#X#X#X#XXXXX",
"*X*X*X*X*X*X*X*X*X*X*X*X*X*X*X*X*X|.W.R.R.R.R.R.J.B.C.V.c.=.>.m.C.T.R.Z.m.m.n.m.m.>.=.Z.XX*X*X*X*X*X*X*X*X*X*X*X#X#X#X#X#X#XOXOX",
"*X*X*X*X*X*X*X*X*X*X*X*X*X*X*X*X*XXXW.R.R.R.R.!.U.j.=.>.*.%.>.m.m.V.C.m.m.m.b.m.z.+.Z.[.*X*X*X*X*X*X*X*X*X*X*X*X*X#X#X#XOX#X#XOX",
"*X*X*X*X*X*X*X*X*X*X*X*X*X*X*X*X*XXXQ.R.R.R.R.Q.!.W.V.*.=.=.<.m.m.m.m.m.n.b.b.m.^ 1.XX*X*X*X*X*X*X*X*X*X*X*X*X*X*X#X#X#X#X#X#X#X",
"*X*X*X*X*X*X*X*X*X*X*X*X*X*X*X*X*X#X!.R.R.R.R.R.R.W.T.V.>.=.=.c.b.b.b.b.m.b.b.n.' ~.*X*X*X*X*X*X*X*X*X*X*X*X*X*X*X*X#X#X#X#X#X#X",
"*X*X*X*X*X*X*X*X*X*X*X*X*X*X*X*X*X*X[.R.R.R.V.z.x.b.B.x.&.*.=.=.=.>.<.c.c.b.m.n.I.#X*X*X*X*X*X*X*X*X*X*X*X*X*X*X*X*X#X#X#X#X#X#X",
"*X*X*X*X*X*X*X*X*X*X*X*X*X*X*X*X*X*XXXQ.R.C.c.@.| { ~ K K T Y Y *.=.<.<.c.c.m.n.{.*X*X*X*X*X*X*X*X*X*X*X*X*X*X*X*X*X*X#X#X#X#X#X",
"*X*X*X*X*X*X*X*X*X*X*X*X*X*X*X*X*X*X*X[.R.Z.Z.T.Z.Z.b.+.[ Y [  .*.=.>.<.<.<.<.b.XX*X*X*X*X*X*X*X*X*X*X*X*X*X*X*X*X*X*X*X#X#X#X#X",
"*X*X*X*X*X*X*X*X*X*X*X*X*X*X*X*X*X#X*X*X!.T.Z.Z.m.>.>.*.+.*.=.=.=.=.=.:.=.=.=.z.{.#X*X*X*X*X*X*X*X*X*X*X*X*X*X*X*X*X*X*X*X#X#X#X",
"*X*X*X*X*X*X*X*X*X*X*X*X*X*X*X*X*X*X*X*X|.R.Z.C.m.c.*.&.*.=.=.=.=.=.=.=.&.*.=.| V ) d.`.*X*X*X*X*X*X*X*X*X*X*X*X*X*X*X*X*X#X#X#X",
"*X*X*X*X*X*X*X*X*X*X*X*X*X*X*X*X*X*X*X*X*X[.T.T.T.H.C.c.>.=.=.=.=.=.=.o.&.=.o.P = 3 m 1.(.*X#X#X*X*X*X*X*X*X*X*X*X*X*X*X*X#X#X*X",
"*X*X*X*X*X*X*X*X*X*X*X*X*X*X*X*X*X*X*X*X*XXX!.R.R.T.T.V.b.<.=.=.=.&.| &.=.*.[ c = 8 x m q.XX*X#X#X#X*X*X*X*X*X*X*X*X*X*X*X*X*X*X",
"*X*X*X*X*X*X*X*X*X*X*X*X*X*X*X*X*X*X*X*X*X*X{.J.Z.V.b.b.c.<.=.*.+.| +.=.=.o.T u = 6 r x E P.*X#X*X*X*X*X*X*X*X*X*X*X*X*X*X*X*X*X",
"*X*X*X*X*X*X*X*X*X*X*X*X*X*X*X*X*X*X#X*X#X*XXXg.k.@.+.+.+.+.o.+.+.+.+.*.*.} a < < r g g x _ (.*X*X*X*X*X*X*X*X*X*X*X*X*X*X*X*X*X",
"*X*X*X*X*X*X*X*X*X*X*X*X*X*X*X*X*X*X#X#X#X*X(.q.M.l.+.| | | &.=.+.| | | I p 6 8 q g x r r g ( P.#X*X*X*X*X*X*X*X*X*X*X*X*X*X*X*X",
"*X*X*X*X*X*X*X*X*X*X*X*X*X*X*X*X#X#X*X*X*X#XP.q.M.m.<.=.+.+.*.X.[ Y G i 6 4 5 8 g r r 8 r t t A d.XX*X*X*X*X*X*X*X*X*X*X*X*X*X*X",
"*X*X*X*X*X*X*X*X*X*X*X*X*X*X*X*X#X*X*XXXXX`.f.u.y.n.>.*.+.o.{ P F i 8 4 8 8 9 8 8 9 g l y r g x V 7.(.*X*X*X*X*X*X*X*X*X*X*X*X*X",
"*X*X*X*X*X*X*X*X*X#X#X*X*X*X*X*X#X`.P.f.f.d.u.u.t.M.;.{ ] P G w < 7 r r r r 8 9 8 r r x m g x x m V ` L.OX*X*X#X#X*X*X*X*X*X*X*X",
"*X*X*X*X*X*X*X*X*X*X#X#X*X*XOX`.L.t.7.7.q.q.w.t.q.q.y.$.W C l 8 5 5 d 9 5 r g e g x B x m V V V N A E S d.XX*X#X#X#X*X*X*X*X*X*X",
"*X*X*X*X*X*X*X*X#X#X#X#X#X`.L.s.e.0.w.0.0.5.7.0.5.q.w.q.1.S V g 9 < 8 8 8 5 h r g m N M V Z E A A / _ E _ s.`.*X#X#X#X*X*X*X*X*X",
"*X*X*X*X*X*X*X*X#X#X#XXX~.d.u.u.q.0.q.0.0.7.5.5.3._ / E S A V x g 9 8 e 8 7 g g m V V N S ) 1._ _ _ _ 3.1.3.u.`.*X#X#X#X*X*X*X*X",
"*X*X*X*X*X*X*X*X#X#XXX~.d.u.u.e.q.w.e.q.7.7.q.0.3.A V V m x l g g 8 5 8 8 5 f V V E E A / _ _ 4.1.4.3.3.3.4.3.t._.*X*X#X*X*X#X*X",
"#X*X*X*X*X*X*X*X#XXX~.s.t.p.u.u.e.e.t.w.e.q.4.q.7.( A Z V m g m m x r g 9 r V / Q ) ( ) / _ _ ) 7.3.3._ 3.5.4.5.t.`.*X*X*X#X*X*X",
"#X#X*X*X*X*X*X*X#X(.s.u.w.e.w.p.u.u.e.u.u.7.q.u.5.3.` _ _ 3.) / A V V V m V / / E / ) ( 3.1.3.3.5.3.4.3.5.3.q.q.5.t.(.#X*X*X*X*X",
"#X#X*X*X*X*X#X*X`.s.q.w.5.3.w.d.d.p.u.w.q.7.w.t.t.3.3.7.3.q.7._ / / / A S _ / 3.E _ 5.E 3.3.3.( 3.5.5._ ` _ 3.5.3.) 3.L.OX*X*X*X",
"#X#X#X*X*X*X#XXXL.e.q.5.w.0.w.u.u.w.e.7.4.5.u.t.p.t.q.w.q.5.w.7.3._ ) ` 1._ 1.4._ q.q.1.3._ _ _ 5.q.1./ 3._ _ 3.3.` _ 5.~.*X*X*X",
"#X#X#X*X*X*X*XXXf.w.q.5.w.w.7.t.t.q.e.e.w.w.8.q.7.t.s.u.q.8.t.t.4.5.4.4.4.5._ 5.3.5.5.3._ _ 4.8.q.5.1.Q ) 6.Q _ _ _ ` / t.XX#X#X",
"XXOX#X#X*X*X*X`.d.w.0.5.u.e.0.7.q.q.u.d.u.u.5.5.w.u.u.q.8.7.5.7.w.t.3.5.5.5.3.q.1.4._ 5.( ) 4.3.5._ ` ( ` 7.E _ ) 5.3.` 5.L.XX#X",
"XXXX#X#X*X*X*X`.s.w.q.w.q.7.q.7.7.u.w.t.w.q.t.t.t.5.q.q.q.q.5.3.5.q.q.5.5.) 3._ 3.( ( / 1.` 4.5.q.4.5._ 3._ / ) 1.1._ 3._ 7.~.XX",
"XXXXXX#X#X*X*X(.u.0.q.u.q.5.e.5.q.e.q.t.u.w.t.8.8.5.q.q.6.6.3.3.1.5.5._ _ / 5.8.7.1.1.4.5.q.q.3.q.3.` 3._ / 4._ _ Q ( E E _ 5.(.",
"XXXXXXXX#X#X*X(.t.0.7.e.u.w.t.5.w.q.q.7.7.3.3.5.3.3.5.5.3.` ) 4.) _ 1.1.S E 7.q.8.` ( _ 6.8.t.8.3.1._ ) _ _ ` 4.S A ) S V V S u.",
"XXXXXXXXXX#X#X(.u.w.5.w.t.q.u.t.5.3.e.5.q.5.5.q.w.q.7.7.1.( _ 1.1.5.3._ _ 3.8.3.) m / 6.7.8.5.5.3._ / 1.3._ E 1.A Z _ S V x V ` ",
"XXXXXXXXXXXX#X(.e.q.7.q.e.q.w.w.5.5.u.q.q.5.4.t.q.7.7.4.3.4.3._ 3.3.3.1._ q.7.3.1.S 3.w.5.4.3.3.3.7.5.1.8._ _ 4.3.( / A V V A / "
};
