/* XPM */
static char *wall02_east[] = {
/* columns rows colors chars-per-pixel */
"64 64 203 2 ",
"   c #251E1E",
".  c #261F20",
"X  c #272021",
"o  c #2A2426",
"O  c #2B2729",
"+  c #2E2A2D",
"@  c #322B2D",
"#  c #2F2C31",
"$  c #302E33",
"%  c #333136",
"&  c #3B3335",
"*  c #36343A",
"=  c #3B363B",
"-  c #3B383E",
";  c #413739",
":  c #433A3D",
">  c #493C3D",
",  c #413534",
"<  c #53413E",
"1  c #3C3A42",
"2  c #433E43",
"3  c #493E41",
"4  c #434044",
"5  c #4B4345",
"6  c #454148",
"7  c #4A454B",
"8  c #4D484F",
"9  c #544443",
"0  c #534A4C",
"q  c #5B4B49",
"w  c #4F4B50",
"e  c #504D52",
"r  c #594E51",
"t  c #5C575A",
"y  c #5A5559",
"u  c #634E4A",
"i  c #6B534E",
"p  c #635B5E",
"a  c #695857",
"s  c #755D58",
"d  c #785D55",
"f  c #77605D",
"g  c #5F5C60",
"h  c #645E62",
"j  c #685F63",
"k  c #6A666A",
"l  c #6D696D",
"z  c #676265",
"x  c #756969",
"c  c #736D71",
"v  c #797477",
"b  c #87685E",
"n  c #9B6E5C",
"m  c #906C5E",
"M  c #A4725D",
"N  c #98766A",
"B  c #857979",
"V  c #AB7B65",
"C  c #A57967",
"Z  c #B47F67",
"A  c #AF806B",
"S  c #B4826C",
"D  c #BB856D",
"F  c #A78375",
"G  c #BC8A74",
"H  c #B58977",
"J  c #BD917D",
"K  c #C48D74",
"L  c #C18F7A",
"P  c #C88D72",
"I  c #CA9177",
"U  c #C4917B",
"Y  c #CB947B",
"T  c #D49679",
"R  c #D3987D",
"E  c #DB9C7F",
"W  c #D29476",
"Q  c #837D81",
"!  c #878183",
"~  c #898284",
"^  c #8C898C",
"/  c #8A8588",
"(  c #90888A",
")  c #958E91",
"_  c #979092",
"`  c #9A9395",
"'  c #9D9A9C",
"]  c #989498",
"[  c #BF9A8B",
"{  c #B99485",
"}  c #BEA298",
"|  c #A49FA2",
" . c #ABA7A9",
".. c #ADA9AC",
"X. c #A7A2A5",
"o. c #B4ADAE",
"O. c #B2AEB0",
"+. c #B5B1B3",
"@. c #BAB7B9",
"#. c #BDB8B8",
"$. c #C49581",
"%. c #C69884",
"&. c #CE9A82",
"*. c #C39B8B",
"=. c #CB9A84",
"-. c #D49C83",
";. c #D99F84",
":. c #CEA18D",
">. c #DDA185",
",. c #D5A38C",
"<. c #DBA48B",
"1. c #DDA88F",
"2. c #CBA594",
"3. c #C5A79B",
"4. c #DCAA93",
"5. c #D9AB97",
"6. c #DFB19A",
"7. c #E2A386",
"8. c #E2A68A",
"9. c #E5A98D",
"0. c #EAAB8D",
"q. c #E5AC93",
"w. c #EBAE92",
"e. c #E1AF98",
"r. c #E6B097",
"t. c #EDB194",
"y. c #E4B19B",
"u. c #ECB599",
"i. c #EAB89E",
"p. c #F1B394",
"a. c #F2B799",
"s. c #F3BA9C",
"d. c #CFAEA1",
"f. c #DCBAAB",
"g. c #DDB6A4",
"h. c #C2BCBD",
"j. c #C2B4B2",
"k. c #D5BEB5",
"l. c #E2B6A2",
"z. c #EABBA3",
"x. c #EABFAA",
"c. c #E3BAA7",
"v. c #F4BEA1",
"b. c #F8BFA0",
"n. c #E0BFB0",
"m. c #DDC4BA",
"M. c #F7C1A2",
"N. c #F9C3A4",
"B. c #F5C4AA",
"V. c #FAC6A9",
"C. c #FAC9AD",
"Z. c #EBC5B4",
"A. c #E3C7BB",
"S. c #ECCBBD",
"D. c #E7C6B7",
"F. c #F6CBB4",
"G. c #F9CBB1",
"H. c #F2CDBB",
"J. c #F2C7B1",
"K. c #F3D0BE",
"L. c #C5C2C4",
"P. c #CAC5C6",
"I. c #CDCACC",
"U. c #CCC7C8",
"Y. c #D2CDCE",
"T. c #DCCBC5",
"R. c #D5D2D3",
"E. c #DAD5D5",
"W. c #DEDBDC",
"Q. c #D8D7D8",
"!. c #E3CEC5",
"~. c #ECCEC1",
"^. c #ECD2C6",
"/. c #ECD5CB",
"(. c #EFD8CF",
"). c #F4D7C9",
"_. c #E4DDDC",
"`. c #EBDEDA",
"'. c #E3D6D3",
"]. c #F2DFD7",
"[. c #F8DDD0",
"{. c #EAE1DF",
"}. c #F5E3DA",
"|. c #E6E4E5",
" X c #EAE5E5",
".X c #EDEBEB",
"XX c #EFE8E7",
"oX c #F1E6E3",
"OX c #F2E9E6",
"+X c #F3EDEB",
"@X c #F9ECE5",
"#X c #F6F0EF",
"$X c #FAF0EC",
"%X c #F0EFF0",
"&X c #F5F3F3",
"*X c #F9F5F4",
"=X c #FBF8F7",
"-X c #FCFCFC",
";X c #FDFDFD",
":X c #FDFCFC",
">X c #FEFEFE",
",X c #FEFDFD",
"<X c #FCFCFC",
/* pixels */
"-X-X-X-X-X-X-X-X-X-X-X-X-X-X-X-X-X-X-X-X-X-X-X-X-X-X-X-X-X-X-X-X-X-X-X-X-X-X-X-X-X-X-X-X-X-X-X-X-X-X-X-X-X-X-X-X-X-X-X-X-X-X-X-X",
"-X-X-X-X-X-X-X-X-X-X-X-X-X-X-X-X-X-X-X-X-X-X-X-X-X-X-X-X-X-X*X.X X.X-X-X-X-X-X-X-X-X-X-X-X-X-X-X-X-X-X-X-X-X-X-X-X-X-X-X-X-X-X-X",
"-X-X-X-X-X-X-X-X-X-X-X-X-X-X-X-X-X-X-X-X-X-X-X-X-X-X-X-X.X .! x p j _ R.-X-X-X-X-X-X-X-X-X-X-X-X-X-X-X-X-X-X-X-X-X-X-X-X-X-X-X-X",
"-X-X-X-X-X-X-X-X-X-X-X-X-X-X-X-X-X-X-X-X-X-X-X-X-X-X-XY.Q 0 5 & : ; : r ` .X-X-X-X-X-X-X-X-X-X-X-X-X-X-X-X-X-X-X-X-X-X-X-X-X-X-X",
"-X-X-X-X-X-X-X-X-X-X-X-X-X-X-X-X-X-X-X-X-X-X-X-X-X*X+.j 0 5 3 & : & & & & ! .X-X-X-X-X-X-X-X-X-X-X-X-X-X-X-X-X-X-X-X-X-X-X-X-X-X",
"-X-X-X-X-X-X-X-X-X-X-X-X-X-X-X-X-X-X-X-X-X-X-X-X*X` r 5 3 : & & ; & & % % : v |.-X-X-X-X-X-X-X-X-X-X-X-X-X-X-X-X-X-X-X-X-X-X-X-X",
"-X-X-X-X-X-X-X-X-X-X-X-X-X-X-X-X-X-X-X-X-X-X-X-XP.p 7 : & $ $ & @ @ @ & $ % & ! *X-X-X-X-X-X-X-X-X-X-X-X-X-X-X-X-X-X-X-X-X-X-X-X",
"-X-X-X-X-X-X-X-X-X-X-X-X-X-X-X-X-X-X-X-X-X-X-X|.l 5 : & & @ @ O . X o @ + $ & : ..-X-X-X-X-X-X-X-X-X-X-X-X-X-X-X-X-X-X-X-X-X-X-X",
"-X-X-X-X-X-X-X-X-X-X-X-X-X-X-X-X-X-X-X-X-X-X-X| 5 : & & > u b i 9 , O X @ + + @ l *X-X-X-X-X-X-X-X-X-X-X-X-X-X-X-X-X-X-X-X-X-X-X",
"-X-X-X-X-X-X-X-X-X-X-X-X-X-X-X-X-X-X-X-X-X-XQ.p > > 9 s F ,.u.1.-.G m < o O + @ & h.-X-X-X-X-X-X-X-X-X-X-X-X-X-X-X-X-X-X-X-X-X-X",
"-X-X-X-X-X-X-X-X-X-X-X-X-X-X-X-X-X-X-X-X-X-X..3 > i F 6.V.C.C.N.s.s.0.G i @ X O $ ( -X-X-X-X-X-X-X-X-X-X-X-X-X-X-X-X-X-X-X-X-X-X",
"-X-X-X-X-X-X-X-X-X-X-X-X-X-X-X-X-X-X-X-X-X-X( : i 2.H.H.G.C.C.C.N.N.s.q.K b @ o + c *X-X-X-X-X-X-X-X-X-X-X-X-X-X-X-X-X-X-X-X-X-X",
"-X-X-X-X-X-X-X-X-X-X-X-X-X-X-X-X-X-X-X-X-X*Xc 9 { ^.^.G.C.C.C.C.V.N.s.a.q.U q o + h +X-X-X-X-X-X-X-X-X-X-X-X-X-X-X-X-X-X-X-X-X-X",
"-X-X-X-X-X-X-X-X-X-X-X-X-X-X-X-X-X-X-X-X-X|.p s z.K.F.C.C.C.C.C.C.N.b.s.a.9.m @ O 0 _.-X-X-X-X-X-X-X-X-X-X-X-X-X-X-X-X-X-X-X-X-X",
"-X-X-X-X-X-X-X-X-X-X-X-X-X-X-X-X-X-X-X-X-XE.0 F C.C.C.V.C.C.C.C.C.C.N.a.a.r.G & X 2 E.-X-X-X-X-X-X-X-X-X-X-X-X-X-X-X-X-X-X-X-X-X",
"-X-X-X-X-X-X-X-X-X-X-X-X-X-X-X-X-X-X-X-X-XP.r *.C.C.V.N.N.C.C.C.C.C.N.a.a.r.-.u o : E.-X-X-X-X-X-X-X-X-X-X-X-X-X-X-X-X-X-X-X-X-X",
"-X-X-X-X-X-X-X-X-X-X-X-X-X-X-X-X-X-X-X-X-Xh.p 2.C.C.C.V.V.C.C.C.C.V.s.a.r.r.>.s & : R.-X-X-X-X-X-X-X-X-X-X-X-X-X-X-X-X-X-X-X-X-X",
"-X-X-X-X-X-X-X-X-X-X-X-X-X-X-X-X-X-X-X-X-XL.z :.V.G.G.C.C.C.C.C.C.C.B.s.a.a.>.f : : R.-X-X-X-X-X-X-X-X-X-X-X-X-X-X-X-X-X-X-X-X-X",
"-X-X-X-X-X-X-X-X-X-X-X-X-X-X-X-X-X-X-X-X-XL.z 5.G.~.F.C.C.G.G.F.H.G.V.N.a.a.q.N 3 2 Q.-X-X-X-X-X-X-X-X-X-X-X-X-X-X-X-X-X-X-X-X-X",
"-X-X-X-X-X-X-X-X-X-X-X-X-X-X-X-X-X-X-X-X-XP.N B.n.2.%.4.z.C.H.^.~.c.1.5.,.q.r.U 9 y .X-X-X-X-X-X-X-X-X-X-X-X-X-X-X-X-X-X-X-X-X-X",
"-X-X-X-X-X-X-X-X-X-X-X-X-X-X-X-X-X-X-X-X-XR.{ J.5.,.U L ,.a.V.B.y.,.,.q.9.q.q.1.i s Z.=X-X-X-X-X-X-X-X-X-X-X-X-X-X-X-X-X-X-X-X-X",
"-X-X-X-X-X-X-X-X-X-X-X-X-X-X-X-X-X-X-X-X-XT.} x.u.V.N.s.q.q.a.a.q.a.N.N.a.q.q.q.b N 8.OX-X-X-X-X-X-X-X-X-X-X-X-X-X-X-X-X-X-X-X-X",
"-X-X-X-X-X-X-X-X-X-X-X-X-X-X-X-X-X-X-X-X-Xk.3.z.r.%.F J q.8.a.a.r.7.U $.>.0.q.q.N H a.}.-X-X-X-X-X-X-X-X-X-X-X-X-X-X-X-X-X-X-X-X",
"-X-X-X-X-X-X-X-X-X-X-X-X-X-X-X-X-X-X-X-X-Xf.d.y.G N p x U E s.s.>.S s s C Y q.q.H =.s.}.-X-X-X-X-X-X-X-X-X-X-X-X-X-X-X-X-X-X-X-X",
"-X-X-X-X-X-X-X-X-X-X-X-X-X-X-X-X-X-X-X-X-XD.g.i.-.e.{ *.,.>.v.a.7.&.{ [ 1.T 0.q.$.=.s.[.-X-X-X-X-X-X-X-X-X-X-X-X-X-X-X-X-X-X-X-X",
"-X-X-X-X-X-X-X-X-X-X-X-X-X-X-X-X-X-X-X-X-Xf.l.N.s.9.q.r.u.r.V.a.r.q.q.u.q.0.a.r.,.1.B.}.-X-X-X-X-X-X-X-X-X-X-X-X-X-X-X-X-X-X-X-X",
"-X-X-X-X-X-X-X-X-X-X-X-X-X-X-X-X-X-X-X-X-Xc.i.N.s.0.0.s.a.a.V.a.a.B.B.s.a.a.a.r.5.u.B.@X-X-X-X-X-X-X-X-X-X-X-X-X-X-X-X-X-X-X-X-X",
"-X-X-X-X-X-X-X-X-X-X-X-X-X-X-X-X-X-X-X-X-Xx.r.N.C.N.B.s.a.B.V.a.a.v.C.C.N.s.a.r.1.u.v.$X-X-X-X-X-X-X-X-X-X-X-X-X-X-X-X-X-X-X-X-X",
"-X-X-X-X-X-X-X-X-X-X-X-X-X-X-X-X-X-X-X-X-XZ.q.a.N.N.V.s.r.B.V.a.a.s.N.C.C.s.a.r.,.9.B.*X-X-X-X-X-X-X-X-X-X-X-X-X-X-X-X-X-X-X-X-X",
"-X-X-X-X-X-X-X-X-X-X-X-X-X-X-X-X-X-X-X-X-X).q.r.s.s.s.0.u.B.F.s.a.r.s.V.V.s.a.q.,.s.).-X-X-X-X-X-X-X-X-X-X-X-X-X-X-X-X-X-X-X-X-X",
"-X-X-X-X-X-X-X-X-X-X-X-X-X-X-X-X-X-X-X-X-X}.e.q.a.a.q.7.7.9.s.r.7.7.0.s.s.a.r.q.1.s.@X-X-X-X-X-X-X-X-X-X-X-X-X-X-X-X-X-X-X-X-X-X",
"-X-X-X-X-X-X-X-X-X-X-X-X-X-X-X-X-X-X-X-X-X*Xx.1.7.0.0.E Z V I I K 7.0.0.a.a.q.q.y.~.-X-X-X-X-X-X-X-X-X-X-X-X-X-X-X-X-X-X-X-X-X-X",
"-X-X-X-X-X-X-X-X-X-X-X-X-X-X-X-X-X-X-X-X-X-X(.1.T E 7.7.I G G ;.q.q.r.0.q.r.q.q.Z.=X-X-X-X-X-X-X-X-X-X-X-X-X-X-X-X-X-X-X-X-X-X-X",
"-X-X-X-X-X-X-X-X-X-X-X-X-X-X-X-X-X-X-X-X-X-X}.-.W W ;.>.1.q.r.q.q.q.q.0.7.7.q.q.S.-X-X-X-X-X-X-X-X-X-X-X-X-X-X-X-X-X-X-X-X-X-X-X",
"-X-X-X-X-X-X-X-X-X-X-X-X-X-X-X-X-X-X-X-X-X-XoX>.T T -.I -.8.s.s.q.q.1.1.>.7.0.q.).-X-X-X-X-X-X-X-X-X-X-X-X-X-X-X-X-X-X-X-X-X-X-X",
"-X-X-X-X-X-X-X-X-X-X-X-X-X-X-X-X-X-X-X-X-X-X+X1.T R -.n V =.1.y.5.=.C Y q.0.0.q.].-X-X-X-X-X-X-X-X-X-X-X-X-X-X-X-X-X-X-X-X-X-X-X",
"-X-X-X-X-X-X-X-X-X-X-X-X-X-X-X-X-X-X-X-X-X-X-Xg.T T >.S C 5.A./.D.5.S -.0.0.0.y.+X-X-X-X-X-X-X-X-X-X-X-X-X-X-X-X-X-X-X-X-X-X-X-X",
"-X-X-X-X-X-X-X-X-X-X-X-X-X-X-X-X-X-X-X-X-X-X-X/.T Y 8.8.-.q.l.Z.Z.5.8.q.0.7.8.f.*X-X-X-X-X-X-X-X-X-X-X-X-X-X-X-X-X-X-X-X-X-X-X-X",
"-X-X-X-X-X-X-X-X-X-X-X-X-X-X-X-X-X-X-X-X-X-X-X+X:.P >.q.q.8.q.u.9.>.q.a.0.7.=.m.-X-X-X-X-X-X-X-X-X-X-X-X-X-X-X-X-X-X-X-X-X-X-X-X",
"-X-X-X-X-X-X-X-X-X-X-X-X-X-X-X-X-X-X-X-X-X-X-X-XT.K R q.q.q.r.s.r.r.a.r.9.>.U !.-X-X-X-X-X-X-X-X-X-X-X-X-X-X-X-X-X-X-X-X-X-X-X-X",
"-X-X-X-X-X-X-X-X-X-X-X-X-X-X-X-X-X-X-X-X-X-X-X-X*X2.-.9.q.r.r.r.u.a.a.q.1.Y U /.-X-X-X-X-X-X-X-X-X-X-X-X-X-X-X-X-X-X-X-X-X-X-X-X",
"-X-X-X-X-X-X-X-X-X-X-X-X-X-X-X-X-X-X-X-X-X-X-X-X-X!.Y 9.q.r.r.s.s.s.a.q.Y D ,.`..X-X-X-X-X-X-X-X-X-X-X-X-X-X-X-X-X-X-X-X-X-X-X-X",
"-X-X-X-X-X-X-X-X-X-X-X-X-X-X-X-X-X-X-X-X-X-X-X-X-X+XJ -.q.a.s.B.N.B.r.-.S P S. X! L.-X-X-X-X-X-X-X-X-X-X-X-X-X-X-X-X-X-X-X-X-X-X",
"-X-X-X-X-X-X-X-X-X-X-X-X-X-X-X-X-X-X-X-X-X-X-X-X-X-X*.S 8.a.s.s.v.s.1.S D l.+X*X` y R.-X-X-X-X-X-X-X-X-X-X-X-X-X-X-X-X-X-X-X-X-X",
"-X-X-X-X-X-X-X-X-X-X-X-X-X-X-X-X-X-X-X-X-X-X-X-X-XR.3.M G 9.u.s.r.,.S D 5.}.*X-Xo.% c *X-X-X-X-X-X-X-X-X-X-X-X-X-X-X-X-X-X-X-X-X",
"-X-X-X-X-X-X-X-X-X-X-X-X-X-X-X-X-X-X-X-X-X-X-X-XY.Q m.V M S =.1.%.A S 1.].-X-X=XX.# * ^ .X-X-X-X-X-X-X-X-X-X-X-X-X-X-X-X-X-X-X-X",
"-X-X-X-X-X-X-X-X-X-X-X-X-X-X-X-X-X-X-X-X-X-X*XR.l c `.*.M n n C V Z ;.(.-X-X-X*X! # $ * z  .R.*X-X-X-X-X-X-X-X-X-X-X-X-X-X-X-X-X",
"-X-X-X-X-X-X-X-X-X-X-X-X-X-X-X-X-X-X-X-X.X@.Q p 1 v OXA.G V V S K ;.S.=X-X-X-X Xp # $ $ $ * 7 c @..X-X-X-X-X-X-X-X-X-X-X-X-X-X-X",
"-X-X-X-X-X-X-X-X-X-X-X-X-X-X-X-X-X-X XO.c 8 8 w * B OXoXl.Y R 8.8.S.*X-X-X-X-XU.1 # $ $ % $ $ % 1 h | |.-X-X-X-X-X-X-X-X-X-X-X-X",
"-X-X-X-X-X-X-X-X-X-X-X-X-X-X-X-X|. .k 7 7 8 8 6 $ B oX+X}.5.q.q.H.*X-X-X-X-X*X' # $ $ $ $ $ $ $ $ $ * y X..X-X-X-X-X-X-X-X-X-X-X",
"-X-X-X-X-X-X-X-X-X-X-X-X-X-X%X..h 6 2 7 6 6 1 & % _  X*X=X~.q.Z.*X-X-X-X-X*X*Xv + # $ $ $ # $ $ $ $ $ # * l R.-X-X-X-X-X-X-X-X-X",
"-X-X-X-X-X-X-X-X-X-X-X-X-XR.Q 7 1 1 1 1 1 1 1 * 4 j.{.*X-X*XS.$X-X-X-X-X*X*X|.e # + # $ + + $ $ $ $ $ $ # # w +.-X-X-X-X-X-X-X-X",
"-X-X-X-X-X-X-X-X-X-X-X*X..h 6 1 1 1 * * 1 & * * y '.`.*X-X_.Y.=X-X-X-X-X=X-X#.% $ $ # + + $ $ $ $ $ $ $ $ $ $ 2 ] +X-X-X-X-X-X-X",
"-X-X-X-X-X-X-X-X-X-X.X) e 6 1 - * * % % * % % $ v +XoXOXR.Q z ..-X-X-X-X-X-X^ # $ $ $ + # $ $ $ # $ $ $ $ $ $ $ & Q .X-X-X-X-X-X",
"-X-X-X-X-X-X-X-X-X*X^ 6 1 * & * * % % * $ # % * ` -X*XoX! $ @ : R.-X-X-X-X*Xt # $ $ $ $ $ $ $ $ $ $ $ $ $ $ $ $ $ & v Q.-X-X-X-X",
"-X-X-X-X-X-X-X-X-XI.6 1 * $ * * * % $ $ $ # * * +.-X-XXXz @ o o _ -X-X-X-XQ.2 # $ $ $ $ $ $ # $ $ $ $ $ $ $ $ $ $ $ % l .X-X-X-X",
"-X-X-X-X-X-X-X-X-X' $ % $ $ % * % $ $ $ $ $ * 1 I.-X-X Xp @   0 h.+X-X-X-X+.$ $ $ $ $ $ $ + + # $ $ $ $ $ $ $ $ $ $ $ % ..-X-X-X",
"-X-X-X-X-X-X-X-X=Xc # $ $ $ $ % % $ $ $ $ $ % 7 _.=X-X_.c t o ( *X_.-X-X-X^ # $ $ $ $ $ # + # $ $ $ $ $ $ $ $ $ $ $ $ # k *X-X-X",
"-X-X-X-X-X-X-X-X|.e # $ $ $ $ $ $ $ $ $ $ % $ e  X*X+X`.l 0 5 Q.-X+X.X*X{.g # $ $ $ $ $ + + $ $ $ $ $ $ $ $ $ $ $ $ $ $ 7 Q.-X-X",
"-X-X-X-X-X-X-X-XI.- + $ $ $ $ $ $ $ $ $ $ % # g +X*XOXOXl t y .X-X*XOX*XE.4 # $ $ $ $ $ + # $ $ $ $ $ $ $ $ $ $ $ $ $ $ 1 R.-X-X",
"-X-X-X-X-X-X-X-X..# O # $ $ $ $ $ $ $ $ $ % # h _.#X*XE.5 + 4 Q.-X*X*X*X+.% $ $ $ $ $ # + $ $ $ $ $ $ $ $ $ # # $ $ $ $ - I.-X-X",
"-X-X-X-X-X-X-X-X^ O o + # # + # $ $ $ $ $ % # v {.*X-X#.% + & P.-X*X*X*X! # $ $ $ $ $ # # $ $ $ $ $ $ $ $ $ + # # # $ $ % ..-X-X",
"-X-X-X-X-X-X-X-Xc O o O # # O + $ $ $ $ $ $ # ( OX*X-X..: + 7 P.-X*X*X.Xh # $ $ $ $ $ # $ $ $ $ $ $ $ $ $ # + # # # $ $ $ / -X-X",
"-X-X-X-X-X-X-X.Xy O o o + + O + $ $ $ $ $ $ # ` +X#X*Xk O + % ' -X*X*XE.7 # $ $ $ $ # # $ $ $ $ $ $ $ $ $ # + + # # $ $ # k *X-X"
};
